<?xml version="1.0" encoding="utf-8"?>
<!-- Generator: Adobe Illustrator 17.0.2, SVG Export Plug-In . SVG Version: 6.00 Build 0)  -->
<!DOCTYPE svg PUBLIC "-//W3C//DTD SVG 1.1//EN" "http://www.w3.org/Graphics/SVG/1.1/DTD/svg11.dtd">
<svg version="1.1" id="Layer_1" xmlns="http://www.w3.org/2000/svg" xmlns:xlink="http://www.w3.org/1999/xlink" x="0px" y="0px"
	 width="50px" height="50px" viewBox="0 0 50 50" enable-background="new 0 0 50 50" xml:space="preserve">
<path fill="none" stroke="#000000" stroke-width="2" stroke-linecap="round" stroke-linejoin="round" stroke-miterlimit="10" d="
	M44.678,13.884c-0.724-3.985-3.367-7.165-9.352-9.719C29.474,1.668,24.719,1,20.438,1c-7.234,0-9.397,8.302-9.798,14.505
	c-0.344,5.335,0.61,14.414,2.494,23.647c2.197,10.767,6.182,10.057,7.19,9.67c4.395-1.687,7.747-6.573,9.342-8.613
	c1.595-2.04,8.486-10.405,11.244-13.9C45.237,20.826,45.389,17.793,44.678,13.884z M22.113,32.974
	c-0.698,1.18-1.256,2.013-1.815,2.777c-0.558,0.764-1.605,1.597-2.094,1.25c-0.489-0.347-1.535-4.651-2.024-7.636
	c-0.489-2.985-0.773-4.374-0.628-9.788c0.14-5.206,1.605-7.497,1.605-7.497c0.628-1.319,1.396,0,1.954,0.833
	c0.558,0.833,1.605,2.985,2.233,6.039c0.628,3.054,1.186,6.456,1.605,8.261C23.369,29.017,22.811,31.794,22.113,32.974z M34,23
	c-2.761,0-5-2.462-5-5.5c0-3.038,2.239-5.5,5-5.5s5,2.462,5,5.5C39,20.538,36.761,23,34,23z"/>
<path fill="none" stroke="#000000" stroke-width="2" stroke-linecap="round" stroke-linejoin="round" stroke-miterlimit="10" d="
	M19.82,1.026C19.269,1.003,16.401,1,15.867,1C8.633,1,6.47,9.302,6.069,15.505C5.725,20.84,6.888,29.879,8.563,39.152
	c1.72,9.523,6.343,9.696,7.059,9.762C16.358,48.983,18.513,49,19.3,49"/>
</svg>
