<?xml version="1.0" encoding="utf-8"?>
<!-- Generator: Adobe Illustrator 17.0.2, SVG Export Plug-In . SVG Version: 6.00 Build 0)  -->
<!DOCTYPE svg PUBLIC "-//W3C//DTD SVG 1.1//EN" "http://www.w3.org/Graphics/SVG/1.1/DTD/svg11.dtd">
<svg version="1.1" id="Layer_1" xmlns="http://www.w3.org/2000/svg" xmlns:xlink="http://www.w3.org/1999/xlink" x="0px" y="0px"
	 width="50px" height="50px" viewBox="0 0 50 50" enable-background="new 0 0 50 50" xml:space="preserve">
<g>
	<path fill="none" stroke="#000000" stroke-width="2" stroke-linecap="round" stroke-linejoin="round" stroke-miterlimit="10" d="
		M39.743,23.439c-1.359-3.578-3.604-5.497-5.413-7.679c-0.765-0.922-1.006-1.545-1.006-1.915c-0.919-1.023-3.74-3.804-4.673-4.874
		c-1.258-1.441-1.051-2.47-0.385-3.434c0.456-0.661,0.78-1.377,1.251-2.15C30.055,2.507,31.115,1,26.216,1c-0.471,0-3.53,0-5.646,0
		c0.722,0,1.564,1.114,1.385,3.373c-0.194,2.456-1.089,7.888-1.319,9.038c-0.806,4.044-8.629,2.429-6.976,6.386
		c0.099,0.295,0.341,0.683,0.529,1.081c0.496,1.048-1.543,6.387-2.017,10.571C10.884,42.821,17.426,49,23.525,49
		c0,0,1.467,0.063,2.877-0.297"/>
	<path fill="none" stroke="#000000" stroke-width="2" stroke-linecap="round" stroke-linejoin="round" stroke-miterlimit="10" d="
		M24.531,44.031c-1.531,0.062-2.596-0.161-3.113-0.404c-0.815-0.382-2.96-2.077-3.781-4.147c-0.735-1.853-1.096-3.329-1.17-6.064
		s0.9-6.554,1.68-8.572c0.779-2.018,2.846-4.586,4.533-6.053c1.507-1.311,4.401-0.965,5.402-0.49
		c1.238,0.588,3.707,2.233,5.627,4.102c0.131,0.128,0.98,0.971,1.23,2.221"/>
	
		<path fill="none" stroke="#000000" stroke-width="2.0119" stroke-linecap="round" stroke-linejoin="round" stroke-miterlimit="10" d="
		M34.643,25.268c-0.015,0.027-1.813,1.061-2.301,1.684c-2.297,2.935,0.572,3.81-2.96,6.218c-2.366,1.614,0.239,4.277-3.119,5.883
		c-2.33,1.114-0.463,4.588-1.853,5.047c-0.228,0.549-0.575,3.135,1.994,4.603c6.085-1.42,9.577-7.8,12.836-18.509
		c0.87-2.859,0.93-5.009,0.505-6.755C37.629,22.324,35.295,23.51,34.643,25.268z"/>
</g>
<path fill="none" stroke="#000000" stroke-width="2" stroke-linecap="round" stroke-linejoin="round" stroke-miterlimit="10" d="
	M20.51,1c-3.042,0-6.441,0.655-7.343,3.81c-0.523,1.832-2.316,6.756,0.332,14.643"/>
<path fill="none" stroke="#000000" stroke-width="2" stroke-linecap="round" stroke-linejoin="round" stroke-miterlimit="10" d="
	M33.328,13.844c0.564-3.828,2.519-7.509,2.585-8.863c0.066-1.354-1.422-2.276-2.901-2.914c-1.453-0.627-2.525-1.058-5.662-1.058"/>
<path d="M16.788,8.452c-0.914-0.097-0.711-1.791-0.614-2.705s0.686-1.827,1.6-1.73c0.914,0.097,1.809,0.59,1.644,1.495
	C19.108,7.218,17.702,8.55,16.788,8.452z"/>
<circle cx="31.5" cy="6.5" r="1.5"/>
</svg>
