<?xml version="1.0" encoding="utf-8"?>
<!-- Generator: Adobe Illustrator 17.0.0, SVG Export Plug-In . SVG Version: 6.00 Build 0)  -->
<!DOCTYPE svg PUBLIC "-//W3C//DTD SVG 1.1//EN" "http://www.w3.org/Graphics/SVG/1.1/DTD/svg11.dtd">
<svg version="1.1" id="Layer_1" xmlns="http://www.w3.org/2000/svg" xmlns:xlink="http://www.w3.org/1999/xlink" x="0px" y="0px"
	 width="50px" height="50px" viewBox="0 0 50 50" enable-background="new 0 0 50 50" xml:space="preserve">
<g>
	<circle cx="31" cy="28" r="1"/>
	<circle cx="28" cy="31" r="1"/>
	<circle cx="28" cy="25" r="1"/>
	<circle cx="34" cy="25" r="1"/>
	<circle cx="37" cy="28" r="1"/>
	<circle cx="37" cy="22" r="1"/>
	<circle cx="31" cy="22" r="1"/>
	<circle cx="22" cy="25" r="1"/>
	<circle cx="16" cy="25" r="1"/>
	<circle cx="16" cy="19" r="1"/>
	<circle cx="34" cy="19" r="1"/>
	<circle cx="13" cy="28" r="1"/>
	<circle cx="19" cy="22" r="1"/>
	<circle cx="31" cy="16" r="1"/>
	<circle cx="19" cy="16" r="1"/>
	<circle cx="13" cy="22" r="1"/>
	<circle cx="25" cy="28" r="1"/>
	<circle cx="22" cy="31" r="1"/>
	<circle cx="28" cy="19" r="1"/>
	<circle cx="22" cy="19" r="1"/>
	<circle cx="19" cy="28" r="1"/>
	<circle cx="31" cy="34" r="1"/>
	<circle cx="19" cy="34" r="1"/>
	<circle cx="16" cy="31" r="1"/>
	<circle cx="34" cy="31" r="1"/>
</g>

<path fill="none" stroke="#000000" stroke-width="2" stroke-linecap="round" stroke-linejoin="round" stroke-miterlimit="10" d="
	M32.199,49c0,0,5.665-3.794,5.665-6.665c0-1.902-0.177-2.246-0.51-5.011c-0.333-2.763,0.427-4.404,1.126-6.286
	c0.695-1.884,1.498-5.181,1.138-8.991c0.098,0.498,0.243,7.046,3.327,9.411"/>
<path fill="none" stroke="#000000" stroke-width="2" stroke-linecap="round" stroke-linejoin="round" stroke-miterlimit="10" d="
	M48.858,27.729c0-6.042-0.755-7.121-2.409-9.565c-0.61-0.902,0.539-0.12,0.539-5.104c0-8.256-8.669-9.555-11.326-9.555
	C34.487,2.543,32.563,1,30.716,1"/>
<path fill="none" stroke="#000000" stroke-width="2" stroke-linecap="round" stroke-linejoin="round" stroke-miterlimit="10" d="
	M17.801,49c0,0-5.665-3.794-5.665-6.665c0-1.902,0.177-2.246,0.51-5.011c0.333-2.763-0.427-4.404-1.126-6.286
	c-0.695-1.884-1.498-5.181-1.138-8.991c-0.098,0.498-0.243,7.046-3.327,9.411"/>
<path fill="none" stroke="#000000" stroke-width="2" stroke-linecap="round" stroke-linejoin="round" stroke-miterlimit="10" d="
	M1.142,27.729c0-6.042,0.755-7.121,2.409-9.565c0.61-0.902-0.539-0.12-0.539-5.104c0-8.256,8.669-9.555,11.326-9.555
	C15.513,2.543,17.437,1,19.284,1"/>
<path fill="none" stroke="#000000" stroke-width="2" stroke-linecap="round" stroke-linejoin="round" stroke-miterlimit="10" d="
	M39.396,21.955c-1.194-0.477-6.99-4.607-7.628-11.853c-1.502-0.079-6.812,7.68-6.812,9.723c0,2.861,0.017,2.437,0.205,4.645
	c0.188,2.208,4.617,16.129,5.652,16.049c0.669-0.054,1.786-2.156,3.925-4.99c1.547-2.048,3.061-2.795,3.593-4.259"/>
<path fill="none" stroke="#000000" stroke-width="2" stroke-linecap="round" stroke-linejoin="round" stroke-miterlimit="10" d="
	M39.396,21.955c-1.194-0.477-6.99-4.607-7.628-11.853c-1.502-0.079-6.812,7.68-6.812,9.723c0,2.861,0.017,2.437,0.205,4.645
	c0.188,2.208,4.617,16.129,5.652,16.049c0.669-0.054,1.786-2.156,3.925-4.99c1.547-2.048,3.061-2.795,3.593-4.259"/>
<path fill="none" stroke="#000000" stroke-width="2" stroke-linecap="round" stroke-linejoin="round" stroke-miterlimit="10" d="
	M10.604,21.955c1.194-0.477,6.99-4.607,7.628-11.853c1.502-0.079,6.812,7.68,6.812,9.723c0,2.861-0.017,2.437-0.205,4.645
	c-0.188,2.208-4.617,16.129-5.652,16.049c-0.669-0.054-1.786-2.156-3.925-4.99c-1.547-2.048-3.061-2.795-3.593-4.259"/>
<path fill="none" stroke="#000000" stroke-width="2" stroke-linecap="round" stroke-linejoin="round" stroke-miterlimit="10" d="
	M10.604,21.955c1.194-0.477,6.99-4.607,7.628-11.853c1.502-0.079,6.812,7.68,6.812,9.723c0,2.861-0.017,2.437-0.205,4.645
	c-0.188,2.208-4.617,16.129-5.652,16.049c-0.669-0.054-1.786-2.156-3.925-4.99c-1.547-2.048-3.061-2.795-3.593-4.259"/>
</svg>
