<?xml version="1.0" encoding="utf-8"?>
<!-- Generator: Adobe Illustrator 17.0.0, SVG Export Plug-In . SVG Version: 6.00 Build 0)  -->
<!DOCTYPE svg PUBLIC "-//W3C//DTD SVG 1.1//EN" "http://www.w3.org/Graphics/SVG/1.1/DTD/svg11.dtd">
<svg version="1.1" id="Layer_1" xmlns="http://www.w3.org/2000/svg" xmlns:xlink="http://www.w3.org/1999/xlink" x="0px" y="0px"
	 width="50px" height="50px" viewBox="0 0 50 50" enable-background="new 0 0 50 50" xml:space="preserve">

<path fill="none" stroke="#000000" stroke-width="2" stroke-linecap="round" stroke-miterlimit="10" d="M46.059,20.433
	c-0.759,0.757-1.993,0.756-2.748,0L29.566,6.69c-0.755-0.756-0.755-1.991,0-2.748l1.375-1.375c0.759-0.757,1.992-0.756,2.748,0
	L47.434,16.31c0.755,0.757,0.755,1.991,0,2.748L46.059,20.433z"/>
<path fill="none" stroke="#000000" stroke-width="2" stroke-linecap="round" stroke-miterlimit="10" d="M35.215,4.087l2.536-2.535
	c0.738-0.736,1.937-0.736,2.675,0l8.024,8.023c0.735,0.737,0.735,1.938,0,2.676l-2.534,2.535"/>
<path fill="none" stroke="#000000" stroke-width="2" stroke-linecap="round" stroke-miterlimit="10" d="M45.909,6.764l2.674-2.674
	c0.735-0.736,0.419-1.573-0.341-2.333s-1.598-1.076-2.334-0.341L43.236,4.09"/>
<path fill="none" stroke="#000000" stroke-width="2" stroke-linecap="round" stroke-miterlimit="10" d="M3.941,29.567
	c0.759-0.757,1.993-0.756,2.748,0L20.434,43.31c0.755,0.756,0.755,1.991,0,2.748l-1.375,1.375c-0.759,0.757-1.992,0.756-2.748,0
	L2.566,33.69c-0.755-0.757-0.755-1.991,0-2.748L3.941,29.567z"/>
<path fill="none" stroke="#000000" stroke-width="2" stroke-linecap="round" stroke-miterlimit="10" d="M14.785,45.913l-2.536,2.535
	c-0.738,0.736-1.937,0.736-2.675,0l-8.024-8.023c-0.735-0.737-0.735-1.938,0-2.676l2.534-2.535"/>
<path fill="none" stroke="#000000" stroke-width="2" stroke-linecap="round" stroke-miterlimit="10" d="M4.091,43.236L1.416,45.91
	c-0.735,0.736-0.419,1.573,0.341,2.333s1.598,1.076,2.334,0.341l2.674-2.674"/>
<line fill="none" stroke="#000000" stroke-width="2" stroke-linecap="round" stroke-miterlimit="10" x1="15.254" y1="38.087" x2="38.088" y2="15.253"/>
<line fill="none" stroke="#000000" stroke-width="2" stroke-linecap="round" stroke-miterlimit="10" x1="34.747" y1="11.912" x2="11.913" y2="34.745"/>
</svg>
