<?xml version="1.0" encoding="utf-8"?>
<!-- Generator: Adobe Illustrator 17.1.0, SVG Export Plug-In . SVG Version: 6.00 Build 0)  -->
<!DOCTYPE svg PUBLIC "-//W3C//DTD SVG 1.1//EN" "http://www.w3.org/Graphics/SVG/1.1/DTD/svg11.dtd">
<svg version="1.1" id="Layer_1" xmlns="http://www.w3.org/2000/svg" xmlns:xlink="http://www.w3.org/1999/xlink" x="0px" y="0px"
	 width="50px" height="50px" viewBox="0 0 50 50" style="enable-background:new 0 0 50 50;" xml:space="preserve">
<circle style="fill:none;stroke:#000000;stroke-width:2;stroke-linecap:round;stroke-linejoin:round;stroke-miterlimit:10;" cx="21" cy="6" r="5"/>
<path style="fill:none;stroke:#000000;stroke-width:2;stroke-linecap:round;stroke-linejoin:round;stroke-miterlimit:10;" d="
	M35.7,21.5L47.4,9.8c1.8-1.8,2.2-4.6,0.7-6.7c-1.9-2.6-5.5-2.8-7.7-0.6L28.5,14.4c-4.2,4.2-12.7,17.1-17.9,22.4l-6.4,6.4
	c-0.7-0.7-1.9-0.7-2.6,0l0,0c-0.7,0.7-0.7,1.9,0,2.6l2.7,2.7c0.7,0.7,1.9,0.7,2.6,0l0,0c0.7-0.7,0.7-1.9,0-2.6l6.4-6.4
	C18.5,34.2,31.5,25.7,35.7,21.5z"/>
<g>
	<path style="fill:none;stroke:#000000;stroke-width:2;stroke-linecap:round;stroke-linejoin:round;stroke-miterlimit:10;" d="
		M20.4,10.6c0.3-1.1,1-2.2,2-3.2c1-1,2.1-1.6,3.2-1.9"/>
	<path style="fill:none;stroke:#000000;stroke-width:2;stroke-linecap:round;stroke-linejoin:round;stroke-miterlimit:10;" d="
		M21.6,1.4c-0.3,1.1-1,2.2-2,3.2c-1,1-2.1,1.7-3.2,2"/>
</g>
<line style="fill:none;stroke:#000000;stroke-width:2;stroke-linecap:round;stroke-linejoin:round;stroke-miterlimit:10;" x1="4.3" y1="43.2" x2="6.8" y2="45.7"/>
</svg>
