<?xml version="1.0" encoding="utf-8"?>
<!-- Generator: Adobe Illustrator 17.0.0, SVG Export Plug-In . SVG Version: 6.00 Build 0)  -->
<!DOCTYPE svg PUBLIC "-//W3C//DTD SVG 1.1//EN" "http://www.w3.org/Graphics/SVG/1.1/DTD/svg11.dtd">
<svg version="1.1" id="Layer_1" xmlns="http://www.w3.org/2000/svg" xmlns:xlink="http://www.w3.org/1999/xlink" x="0px" y="0px"
	 width="50px" height="50px" viewBox="0 0 50 50" enable-background="new 0 0 50 50" xml:space="preserve">
<path d="M41.576,6.308c-0.004-0.007-0.004-0.014-0.008-0.021c-0.109-0.175-0.269-0.288-0.443-0.37C36.769,2.23,31.141,0,25,0
	C11.215,0,0,11.215,0,25s11.215,25,25,25s25-11.215,25-25C50,17.57,46.738,10.891,41.576,6.308z M47.813,22.117
	c-0.022,0.017-0.049,0.023-0.07,0.042c-0.059,0.053-5.341,4.695-17.653,5.755C29.455,16.999,38.182,9.896,40.618,8.135
	C44.488,11.722,47.122,16.62,47.813,22.117z M25.803,47.98c-0.157-0.208-4.701-6.372-5.785-17.983
	c1.554,0.124,3.208,0.196,4.982,0.196c1.133,0,2.219-0.03,3.264-0.083c1.321,7.715,8.083,11.516,11.087,12.844
	C35.609,45.951,30.916,47.803,25.803,47.98z M19.782,25c0-14.9,6.578-22.702,6.645-22.779c0.043-0.05,0.062-0.11,0.094-0.165
	c4.674,0.307,8.969,2.014,12.472,4.708c-3.179,2.357-11.662,9.772-10.956,21.294c-0.974,0.048-1.982,0.077-3.036,0.077
	c-1.843,0-3.544-0.086-5.137-0.225C19.813,26.97,19.782,26.004,19.782,25z M24.003,2.025C22.095,4.774,17.724,12.436,17.724,25
	c0,0.922,0.025,1.813,0.066,2.684c-2.429-0.311-4.538-0.756-6.345-1.268c-0.096-9.735-2.227-15.754-2.916-17.445
	C12.493,4.898,17.947,2.285,24.003,2.025z M6.983,10.729c0.801,2.309,2.238,7.481,2.393,15.041
	c-4.696-1.645-6.778-3.549-6.814-3.583c-0.105-0.101-0.227-0.172-0.355-0.219C2.763,17.758,4.462,13.905,6.983,10.729z
	 M2.016,24.388c1.167,0.859,3.536,2.332,7.36,3.581c-0.166,6.135-1.985,9.498-2.835,10.735C3.69,34.874,2,30.131,2,25
	C2,24.795,2.01,24.592,2.016,24.388z M7.888,40.349c0.86-1.084,3.23-4.695,3.531-11.778c1.882,0.501,4.045,0.932,6.517,1.224
	c0.811,9.543,3.848,15.629,5.372,18.137C17.202,47.485,11.749,44.648,7.888,40.349z M41.07,41.434
	c-1.717-0.664-9.318-4.004-10.74-11.465c9.867-0.844,15.433-3.886,17.659-5.414C47.992,24.703,48,24.851,48,25
	C48,31.434,45.342,37.255,41.07,41.434z"/>
</svg>
