<?xml version="1.0" encoding="utf-8"?>
<!-- Generator: Adobe Illustrator 17.1.0, SVG Export Plug-In . SVG Version: 6.00 Build 0)  -->
<!DOCTYPE svg PUBLIC "-//W3C//DTD SVG 1.1//EN" "http://www.w3.org/Graphics/SVG/1.1/DTD/svg11.dtd">
<svg version="1.1" id="Layer_1" xmlns="http://www.w3.org/2000/svg" xmlns:xlink="http://www.w3.org/1999/xlink" x="0px" y="0px"
	 width="50px" height="50px" viewBox="0 0 50 50" style="enable-background:new 0 0 50 50;" xml:space="preserve">
<style type="text/css">
	.st0{fill:none;stroke:#000000;stroke-width:2.0312;stroke-miterlimit:10;}
	.st1{fill:none;stroke:#000000;stroke-width:2;stroke-miterlimit:10;}
</style>
<path class="st0" d="M16,19C7.7,19,1,25.7,1,34s6.7,15,15,15s15-6.7,15-15S24.3,19,16,19z"/>
<circle cx="15.5" cy="25.5" r="2.5"/>
<circle cx="22" cy="29" r="2"/>
<circle cx="16" cy="33" r="2"/>
<path class="st1" d="M47.5,22.7c-0.5-1.4-2.3-6.9-2.4-7.2c-0.7-2.3-0.4-4.8-0.4-4.8c0.1-1.1,0.4-2.2,0.8-3.3
	c0.3-0.8,0.3-1.8,0.1-2.8C45.2,2.9,43.6,1,41,1c0,0,0,0,0,0l0,0c0,0,0,0,0,0c-2.6,0-4.2,1.9-4.6,3.5c-0.3,1-0.2,1.9,0.1,2.8
	c0.4,1.1,0.6,2.2,0.8,3.3c0,0,0.3,2.5-0.4,4.8c-0.1,0.3-1.9,5.8-2.4,7.2c-1.3,4.1-1.8,8.4-1.3,12.6c0.5,4.3,1.1,9.2,1.1,9.8
	c0.1,1.1,3,1.9,6.7,1.9l0,0c3.7,0,6.6-0.9,6.7-1.9c0-0.6,0.6-5.5,1.1-9.8C49.3,31,48.9,26.7,47.5,22.7z"/>
<line class="st1" x1="37" y1="14" x2="45" y2="14"/>
<line class="st1" x1="36" y1="18" x2="46" y2="18"/>
</svg>
