<?xml version="1.0" encoding="utf-8"?>
<!-- Generator: Adobe Illustrator 17.1.0, SVG Export Plug-In . SVG Version: 6.00 Build 0)  -->
<!DOCTYPE svg PUBLIC "-//W3C//DTD SVG 1.1//EN" "http://www.w3.org/Graphics/SVG/1.1/DTD/svg11.dtd">
<svg version="1.1" id="Layer_1" xmlns="http://www.w3.org/2000/svg" xmlns:xlink="http://www.w3.org/1999/xlink" x="0px" y="0px"
	 width="50px" height="50px" viewBox="0 0 50 50" style="enable-background:new 0 0 50 50;" xml:space="preserve">
<path style="fill:none;stroke:#000000;stroke-width:2;stroke-linecap:round;stroke-miterlimit:10;" d="M13.4,27.6
	c-0.9-2.2-2.1-11.6-2.1-14.1C11.3,4.3,14.4,1,27.6,1S44,4.3,44,13.5c0,8.6-1.3,20.7-5,24.4c-2.4,2.4-17.9,3.1-20.9,1.9
	c-2.8-1.1-8.4-1.6-13.2-14.2C1.9,18,7,13.7,11.2,15.4"/>
<path style="fill:none;stroke:#000000;stroke-width:2;stroke-linecap:round;stroke-miterlimit:10;" d="M16,39.3
	c0.7,4.4,1.3,7.3,2.1,8.1C19.4,48.6,22,49,28.5,49s9.5-0.6,10.2-2C40,44.6,40,36.8,40,36.8"/>
</svg>
