<?xml version="1.0" encoding="utf-8"?>
<!-- Generator: Adobe Illustrator 17.0.2, SVG Export Plug-In . SVG Version: 6.00 Build 0)  -->
<!DOCTYPE svg PUBLIC "-//W3C//DTD SVG 1.1//EN" "http://www.w3.org/Graphics/SVG/1.1/DTD/svg11.dtd">
<svg version="1.1" id="Layer_1" xmlns="http://www.w3.org/2000/svg" xmlns:xlink="http://www.w3.org/1999/xlink" x="0px" y="0px"
	 width="50px" height="50px" viewBox="0 0 50 50" enable-background="new 0 0 50 50" xml:space="preserve">
<path fill="none" stroke="#000000" stroke-width="2" stroke-linecap="round" stroke-linejoin="round" stroke-miterlimit="10" d="
	M17.797,43.781C21.208,47.399,25.174,49,30.199,49C37.258,49,43,43.195,43,36.06V13.94C43,6.805,37.258,1,30.199,1
	C23.18,1,13.66,6.206,9.411,12.369c-3.002,4.354-2.666,7.965-1.827,10.214c1.078,2.889,1.895,3.332,3.793,2.628
	c0.615-0.23,1.052-0.56,1.687-0.951c0.853-0.525,1.745-1.121,0.591-3.913c-0.097-0.235-1.002-1.979,0.458-4.088
	C16.976,12.125,24.132,8,30.199,8C33.225,8,36,10.882,36,13.94v22.12c0,3.006-2.398,5.94-6,5.94c-4.266,0-6.078-2.234-6.078-2.234"
	/>
<path fill="none" stroke="#000000" stroke-width="2" stroke-linecap="round" stroke-linejoin="round" stroke-miterlimit="10" d="
	M26.081,20.602c-0.957-3.489-1.635-3.247-4.574-2.533c-1.984,0.482-3.48,0.684-2.533,4.574c0.02,0.082,1.967,8.158-3.163,14.883
	c-1.418,1.858-0.911,4.266,0.704,5.514c0.488,0.378,1.092,0.751,1.661,0.852c1.312,0.234,3.209-0.518,4.08-1.644
	C29.696,32.625,26.213,21.081,26.081,20.602z"/>
<path fill="none" stroke="#000000" stroke-width="2" stroke-linecap="round" stroke-linejoin="round" stroke-miterlimit="10" d="
	M10.375,21.046c1.246-1.115,2.82-1.968,2.82-1.968"/>
<circle cx="19.5" cy="39.5" r="1.5"/>
</svg>
