<?xml version="1.0" encoding="utf-8"?>
<!-- Generator: Adobe Illustrator 17.0.2, SVG Export Plug-In . SVG Version: 6.00 Build 0)  -->
<!DOCTYPE svg PUBLIC "-//W3C//DTD SVG 1.1//EN" "http://www.w3.org/Graphics/SVG/1.1/DTD/svg11.dtd">
<svg version="1.1" id="Layer_1" xmlns="http://www.w3.org/2000/svg" xmlns:xlink="http://www.w3.org/1999/xlink" x="0px" y="0px"
	 width="50px" height="50px" viewBox="0 0 50 50" enable-background="new 0 0 50 50" xml:space="preserve">
<path fill="none" stroke="#000000" stroke-width="2" stroke-linecap="round" stroke-linejoin="round" stroke-miterlimit="10" d="
	M37,14c0.057,3.082-0.36,5.421-1.013,8.012c0,0,3.413,8.926,3.413,17.55C39.4,45.687,37.403,49,26.673,49c-5.284,0-12.06,0-15.021,0
	C4.678,49,1,43.435,1,37.536C1,33.111,3.783,28.969,4,22c-0.483-2.727-0.841-5.197-1-8"/>
<path fill="none" stroke="#000000" stroke-width="2" stroke-linecap="round" stroke-linejoin="round" stroke-miterlimit="10" d="
	M25,8.268C25.12,4.648,25.218,1,28.936,1c4.252,0,3.104,5.116,2.258,8.505"/>
<path fill="none" stroke="#000000" stroke-width="2" stroke-linecap="round" stroke-linejoin="round" stroke-miterlimit="10" d="
	M15,8.268C14.88,4.648,14.782,1,11.065,1C6.811,1,7.961,6.117,8.807,9.505"/>
<path fill="none" stroke="#000000" stroke-width="2" stroke-linecap="round" stroke-linejoin="round" stroke-miterlimit="10" d="
	M9.375,24.125C20,29.25,33.875,25.25,35.982,21.981c11.048-2.624,12.746,5.295,9.751,12.776C41.333,45.75,46.567,47,49,47"/>
<ellipse fill="none" stroke="#000000" stroke-width="2" stroke-linecap="round" stroke-linejoin="round" stroke-miterlimit="10" cx="20" cy="14" rx="17" ry="6"/>
</svg>
