<?xml version="1.0" encoding="utf-8"?>
<!-- Generator: Adobe Illustrator 17.0.0, SVG Export Plug-In . SVG Version: 6.00 Build 0)  -->
<!DOCTYPE svg PUBLIC "-//W3C//DTD SVG 1.1//EN" "http://www.w3.org/Graphics/SVG/1.1/DTD/svg11.dtd">
<svg version="1.1" id="Layer_1" xmlns="http://www.w3.org/2000/svg" xmlns:xlink="http://www.w3.org/1999/xlink" x="0px" y="0px"
	 width="50px" height="50px" viewBox="0 0 50 50" enable-background="new 0 0 50 50" xml:space="preserve">

<g>
	<path fill="none" stroke="#000000" stroke-width="2" stroke-linecap="round" stroke-linejoin="round" stroke-miterlimit="10" d="
		M49,20.518c0-8.17-13.285-9.468-20.04-9.468c-2.865,0-2.31,3.546-0.316,3.546C40.399,14.597,43,19.191,43,23"/>
</g>
<g>
	<path fill="none" stroke="#000000" stroke-width="2" stroke-linecap="round" stroke-linejoin="round" stroke-miterlimit="10" d="
		M1,20.518c0-8.17,13.285-9.468,20.04-9.468c2.865,0,2.31,3.546,0.316,3.546C9.601,14.597,7,19.191,7,23"/>
</g>
<path fill="none" stroke="#000000" stroke-width="2" stroke-linecap="round" stroke-linejoin="round" stroke-miterlimit="10" d="
	M48.919,20.518c-1.167,2.018-5.614,4.279-11.85,4.058c-1.278-1.058-2.895-1.719-4.684-1.719c-0.57,0-1.121,0.079-1.652,0.201
	c-1.578-1.261-3.554-2.047-5.732-2.047s-4.154,0.786-5.732,2.047c-0.532-0.122-1.082-0.201-1.652-0.201
	c-1.789,0-3.406,0.661-4.684,1.719c-4.425-0.495-7.554-1.597-11.85-4.058C1.046,20.683,1,20.845,1,21.011c0,1.346,0,7.566,0,8.912
	c0,2.703,4.732,5.675,11.771,7.379c1.3,1.139,2.982,1.852,4.844,1.852c0.57,0,1.121-0.079,1.652-0.201
	C20.846,40.214,22.822,41,25,41s4.154-0.786,5.732-2.047c0.532,0.122,1.082,0.201,1.652,0.201c1.863,0,3.545-0.713,4.844-1.852
	C44.268,35.598,49,32.626,49,29.923c0-1.346,0-7.566,0-8.912C49,20.845,48.954,20.683,48.919,20.518z"/>
<circle fill="none" stroke="#000000" stroke-width="2" stroke-linecap="round" stroke-linejoin="round" stroke-miterlimit="10" cx="25" cy="31" r="5"/>
<ellipse fill="none" stroke="#000000" stroke-width="2" stroke-linecap="round" stroke-linejoin="round" stroke-miterlimit="10" cx="37" cy="31" rx="3" ry="2.99"/>
<ellipse fill="none" stroke="#000000" stroke-width="2" stroke-linecap="round" stroke-linejoin="round" stroke-miterlimit="10" cx="13" cy="31" rx="3" ry="2.99"/>
</svg>
