<?xml version="1.0" encoding="utf-8"?>
<!-- Generator: Adobe Illustrator 17.0.0, SVG Export Plug-In . SVG Version: 6.00 Build 0)  -->
<!DOCTYPE svg PUBLIC "-//W3C//DTD SVG 1.1//EN" "http://www.w3.org/Graphics/SVG/1.1/DTD/svg11.dtd">
<svg version="1.1" id="Layer_1" xmlns="http://www.w3.org/2000/svg" xmlns:xlink="http://www.w3.org/1999/xlink" x="0px" y="0px"
	 width="50px" height="50px" viewBox="0 0 50 50" enable-background="new 0 0 50 50" xml:space="preserve">

<path fill="none" stroke="#000000" stroke-width="2" stroke-linecap="round" stroke-linejoin="round" stroke-miterlimit="10" d="
	M32.199,49c0,0,5.665-3.794,5.665-6.665c0-1.902-0.177-2.246-0.51-5.011c-0.333-2.763,0.427-4.404,1.126-6.286
	c0.695-1.884,1.498-5.181,1.138-8.991c0.098,0.498,0.243,7.046,3.327,9.411"/>
<path fill="none" stroke="#000000" stroke-width="2" stroke-linecap="round" stroke-linejoin="round" stroke-miterlimit="10" d="
	M48.858,27.729c0-6.042-0.755-7.121-2.409-9.565c-0.61-0.902,0.539-0.12,0.539-5.104c0-8.256-8.669-9.555-11.326-9.555
	C34.487,2.543,32.563,1,30.716,1"/>
<path fill="none" stroke="#000000" stroke-width="2" stroke-linecap="round" stroke-linejoin="round" stroke-miterlimit="10" d="
	M17.801,49c0,0-5.665-3.794-5.665-6.665c0-1.902,0.177-2.246,0.51-5.011c0.333-2.763-0.427-4.404-1.126-6.286
	c-0.695-1.884-1.498-5.181-1.138-8.991c-0.098,0.498-0.243,7.046-3.327,9.411"/>
<path fill="none" stroke="#000000" stroke-width="2" stroke-linecap="round" stroke-linejoin="round" stroke-miterlimit="10" d="
	M1.142,27.729c0-6.042,0.755-7.121,2.409-9.565c0.61-0.902-0.539-0.12-0.539-5.104c0-8.256,8.669-9.555,11.326-9.555
	C15.513,2.543,17.437,1,19.284,1"/>
<path fill="none" stroke="#000000" stroke-width="2" stroke-linecap="round" stroke-linejoin="round" stroke-miterlimit="10" d="
	M10.037,16.916c0,0,0.74,2.954,1.362,4.112c1.086,2.021,3.324,3.15,7.156,3.89C21.334,25.454,25,23.294,25,20.927
	c0,2.367,3.666,4.527,6.445,3.99c3.832-0.74,6.07-1.869,7.156-3.89c0.622-1.158,1.361-4.112,1.361-4.112"/>
<path fill="none" stroke="#000000" stroke-width="2" stroke-linecap="round" stroke-linejoin="round" stroke-miterlimit="10" d="
	M31.401,9.089c-5.458,2.151-5.23,3.848-6.401,3.848c-1.17,0-0.983-1.66-6.401-3.848"/>
<g>
	<circle cx="31" cy="19" r="1"/>
	<circle cx="28" cy="22" r="1"/>
	<circle cx="28" cy="16" r="1"/>
	<circle cx="34" cy="16" r="1"/>
	<circle cx="37" cy="19" r="1"/>
	<circle cx="37" cy="13" r="1"/>
	<circle cx="31" cy="13" r="1"/>
	<circle cx="40" cy="16" r="1"/>
	<circle cx="22" cy="16" r="1"/>
	<circle cx="16" cy="16" r="1"/>
	<circle cx="16" cy="10" r="1"/>
	<circle cx="34" cy="10" r="1"/>
	<circle cx="13" cy="19" r="1"/>
	<circle cx="19" cy="13" r="1"/>
	<circle cx="13" cy="13" r="1"/>
	<circle cx="10" cy="16" r="1"/>
	<circle cx="25" cy="19" r="1"/>
	<circle cx="22" cy="22" r="1"/>
	<circle cx="19" cy="19" r="1"/>
	<circle cx="16" cy="22" r="1"/>
	<circle cx="34" cy="22" r="1"/>
</g>
</svg>
