<?xml version="1.0" encoding="utf-8"?>
<!-- Generator: Adobe Illustrator 17.0.2, SVG Export Plug-In . SVG Version: 6.00 Build 0)  -->
<!DOCTYPE svg PUBLIC "-//W3C//DTD SVG 1.1//EN" "http://www.w3.org/Graphics/SVG/1.1/DTD/svg11.dtd">
<svg version="1.1" id="Layer_1" xmlns="http://www.w3.org/2000/svg" xmlns:xlink="http://www.w3.org/1999/xlink" x="0px" y="0px"
	 width="50px" height="50px" viewBox="0 0 50 50" enable-background="new 0 0 50 50" xml:space="preserve">
<path fill="none" stroke="#000000" stroke-width="2" stroke-linecap="round" stroke-linejoin="round" stroke-miterlimit="10" d="
	M6,41c0,0,3.078,6,6.578,6C19.244,47,23,39.809,23,34"/>
<path fill="none" stroke="#000000" stroke-width="2" stroke-linecap="round" stroke-linejoin="round" stroke-miterlimit="10" d="
	M7.467,35.435c0,0,3.226,8.565,5.998,8.565c3.404,0,6.579-7.48,6.579-11.522"/>
<path fill="none" stroke="#000000" stroke-width="2" stroke-linecap="round" stroke-linejoin="round" stroke-miterlimit="10" d="
	M19.462,2C9.86,2,1,9.36,1,22.308C1,29.323,6,41,6,41s0.716-16.537,17-6.991c11.439-2.974,23.564-6.063,26-11.701
	C48.244,7.142,36.432,2,19.462,2z"/>
<path d="M20.347,12.824c-0.735-0.393-1.49-0.676-2.243-0.875c-0.251-0.066-0.525-0.389-0.008-0.952
	c0.333-0.362,1.215-1.285,1.805-1.895c0.611-0.632,1.143-0.49,1.429-0.433c0.843,0.167,1.661,0.395,2.443,0.672
	c0.293,0.104,0.858,0.3,0.124,1.106c-0.476,0.523-1.474,1.589-2.139,2.248C21.2,13.249,20.621,12.97,20.347,12.824z"/>
<path d="M10.091,12.119c1.47-1.705,3.269-2.739,5.188-3.279c0.4-0.112,1.192-0.22,0.568,0.401c-0.417,0.414-1.318,1.332-1.843,1.922
	c-0.385,0.433-0.897,0.533-1.106,0.562C11.043,11.98,9.854,12.393,10.091,12.119z"/>
<path d="M26.119,19.232c-0.436-1.162-0.949-2.155-1.519-3.002c-0.158-0.235-0.506-0.639,0.235-1.434
	c0.91-0.977,2.429-2.562,2.804-2.927c0.548-0.533,1.065-0.159,1.307,0.046c1.246,1.059,2.015,2.218,2.015,3.283
	C30.96,16.367,26.482,20.2,26.119,19.232z"/>
</svg>
