<?xml version="1.0" encoding="utf-8"?>
<!-- Generator: Adobe Illustrator 17.0.2, SVG Export Plug-In . SVG Version: 6.00 Build 0)  -->
<!DOCTYPE svg PUBLIC "-//W3C//DTD SVG 1.1//EN" "http://www.w3.org/Graphics/SVG/1.1/DTD/svg11.dtd">
<svg version="1.1" id="Layer_1" xmlns="http://www.w3.org/2000/svg" xmlns:xlink="http://www.w3.org/1999/xlink" x="0px" y="0px"
	 width="50px" height="50px" viewBox="0 0 50 50" enable-background="new 0 0 50 50" xml:space="preserve">
<path fill="none" stroke="#000000" stroke-width="2" stroke-linecap="round" stroke-linejoin="round" stroke-miterlimit="10" d="
	M24.094,8.789c-7.042,4.792-11.966,8.804-11.966,8.804s-1.237,3.819,4.143,2.772c5.631-1.096,3.408,5.153,0.864,10.522
	c-1.951,4.116-4.744,6.575-9.135,4.989c1.284,1.6,3.808,8.762,10.15,11.881c5.688,2.797,6.546,0.458,8.133-2.89
	c3.427-7.23,0.993-11.608,3.405-16.696s14.02-10.554,18.348-19.685c2.063-4.353,0.424-6.105-1.289-6.726
	c-1.456-0.527-3.679-1.179-7.613-0.032S27.057,6.772,24.094,8.789z"/>
<path fill="none" stroke="#000000" stroke-width="2" stroke-linecap="round" stroke-linejoin="round" stroke-miterlimit="10" d="
	M9.699,38.752c-2.359-1.936-3.813-1.649-5.565-1.814c-2.825-0.266-3.422-1.917-2.958-2.945c0.566-1.254,2.529-1.199,4.309-0.326
	C7.172,34.494,8.133,35.784,9.699,38.752z"/>
<path fill="none" stroke="#000000" stroke-width="2" stroke-linecap="round" stroke-linejoin="round" stroke-miterlimit="10" d="
	M26.584,23.712c-4.896-7.698,20.252-19.007,9.11-20.744"/>
</svg>
