<?xml version="1.0" encoding="utf-8"?>
<!-- Generator: Adobe Illustrator 16.0.0, SVG Export Plug-In . SVG Version: 6.00 Build 0)  -->
<!DOCTYPE svg PUBLIC "-//W3C//DTD SVG 1.1//EN" "http://www.w3.org/Graphics/SVG/1.1/DTD/svg11.dtd">
<svg version="1.1" id="Layer_1" xmlns="http://www.w3.org/2000/svg" xmlns:xlink="http://www.w3.org/1999/xlink" x="0px" y="0px"
	 width="50px" height="50px" viewBox="0 0 50 50" enable-background="new 0 0 50 50" xml:space="preserve">

<path fill="none" stroke="#000000" stroke-width="2" stroke-linecap="round" stroke-linejoin="round" stroke-miterlimit="10" d="
	M27,5.5c0,2.487-2.015,4.5-4.497,4.5C20.015,10,18,7.987,18,5.5C18,3.014,20.015,1,22.503,1C24.985,1,27,3.014,27,5.5z"/>
<path fill="none" stroke="#000000" stroke-width="2" stroke-linecap="round" stroke-linejoin="round" stroke-miterlimit="10" d="
	M39.707,36.83c0,0-0.859-11.768-1.011-12.829s-1.191-1.804-2.172-1.667c-1.122,0.158-2.424,0.808-6.031,2.853l0.937-9.838
	c0,0,5.812-11.164,6.047-11.794c0.356-0.97,0.57-1.855-0.491-2.387c-1.227-0.613-2.142,1.053-2.142,1.053L28,13
	c0,0-4.713,0.476-6.355,0.536c-0.864,0.031-1.536,0.322-2.608,0.879c-0.951,0.495-4.304,2.36-4.304,2.36s-4.411-5.039-5.053-5.882
	c-0.804-1.055-1.722-0.933-2.356-0.5S7.1,12.209,7.645,13.179c0.593,1.055,3.718,5.445,4.785,6.714
	c1.229,1.462,1.827,1.232,2.75,0.857s4.571-1.679,4.571-1.679l1.157,9.839c-0.061,0.145-5.647,13.328-6.859,16.658
	c-0.404,1.111-0.202,2.525,0.924,3.061c1.684,0.799,3.065-0.383,3.672-1.646c0.841-1.752,7.48-13.232,7.48-13.232
	c3,0.375,4.328-0.984,5.167-1.502c0.839-0.519,3.566-2.842,3.566-2.842l0.808,7.677c0,0,0.405,2.879,2.273,2.525
	S39.707,36.83,39.707,36.83z"/>
<path fill="none" stroke="#000000" stroke-width="2" stroke-linecap="round" stroke-linejoin="round" stroke-miterlimit="10" d="
	M21.019,28.244C33.394,28.244,45,11.883,45,1"/>
<line fill="none" stroke="#000000" stroke-width="2" stroke-linecap="round" stroke-linejoin="round" stroke-miterlimit="10" x1="29" y1="48" x2="29.068" y2="34"/>
</svg>
