<?xml version="1.0" encoding="utf-8"?>
<!-- Generator: Adobe Illustrator 17.1.0, SVG Export Plug-In . SVG Version: 6.00 Build 0)  -->
<!DOCTYPE svg PUBLIC "-//W3C//DTD SVG 1.1//EN" "http://www.w3.org/Graphics/SVG/1.1/DTD/svg11.dtd">
<svg version="1.1" id="Layer_1" xmlns="http://www.w3.org/2000/svg" xmlns:xlink="http://www.w3.org/1999/xlink" x="0px" y="0px"
	 width="50px" height="50px" viewBox="0 0 50 50" style="enable-background:new 0 0 50 50;" xml:space="preserve">
<path style="fill:none;stroke:#000000;stroke-width:2;stroke-linecap:round;stroke-linejoin:round;stroke-miterlimit:10;" d="
	M18.4,38l-1.1,0c-1.1,0-2.1,0.4-2.9,1.2l-9.4,9.4c-0.6,0.6-1.7,0.6-2.3,0l-1.3-1.3c-0.6-0.6-0.6-1.7,0-2.3l9.4-9.4
	c0.7-0.7,1.2-1.7,1.2-2.8l0-1.1"/>
<path style="fill:none;stroke:#000000;stroke-width:2;stroke-linecap:round;stroke-linejoin:round;stroke-miterlimit:10;" d="
	M10.9,28.3L37.7,1.4c0,0,2.8-2.1,7.9,3s3,7.9,3,7.9L21.7,39.1c-0.6,0.6-1.6,0.6-2.2,0l-8.6-8.6C10.3,29.9,10.3,28.9,10.9,28.3z"/>
<g>
	<path style="fill:none;stroke:#000000;stroke-width:2;stroke-linecap:round;stroke-linejoin:round;stroke-miterlimit:10;" d="
		M13.9,1.5c-0.5,0.7-1.4,3,1.3,5.7c2,2,3.9,2,4.9,1.7"/>
</g>
<circle style="fill:none;stroke:#000000;stroke-width:2;stroke-linecap:round;stroke-linejoin:round;stroke-miterlimit:10;" cx="16" cy="6" r="5"/>
</svg>
