<?xml version="1.0" encoding="utf-8"?>
<!-- Generator: Adobe Illustrator 17.1.0, SVG Export Plug-In . SVG Version: 6.00 Build 0)  -->
<!DOCTYPE svg PUBLIC "-//W3C//DTD SVG 1.1//EN" "http://www.w3.org/Graphics/SVG/1.1/DTD/svg11.dtd">
<svg version="1.1" id="Layer_1" xmlns="http://www.w3.org/2000/svg" xmlns:xlink="http://www.w3.org/1999/xlink" x="0px" y="0px"
	 width="50px" height="50px" viewBox="0 0 50 50" style="enable-background:new 0 0 50 50;" xml:space="preserve">
<style type="text/css">
	.st0{fill:none;stroke:#000000;stroke-width:2;stroke-linecap:round;stroke-linejoin:round;stroke-miterlimit:10;}
</style>
<circle class="st0" cx="20.5" cy="5.5" r="4.5"/>
<path class="st0" d="M39.7,12.7c-0.6-0.9-1.7-1.1-2.6-0.5l-4.3,2.9l-4.5-4.5c-0.4-0.4-1.1-0.6-1.7-0.5l-9.2,1.9
	c-0.6,0.1-1.1,0.6-1.3,1.1l-3.1,7.9l-5.8-1.5c-1-0.2-2,0.4-2.2,1.4c-0.2,1,0.4,2,1.3,2.3l7.4,1.9c0.1,0,0.3,0.1,0.4,0.1
	c0.7,0,1.4-0.5,1.7-1.2l1.1-2.7v8.1l-2.9,8.1c-0.2,0.4-0.2,0.9,0,1.4l3.7,9.2c0.3,0.7,1,1.2,1.7,1.2c0.2,0,0.5,0,0.7-0.1
	c0.9-0.4,1.4-1.5,1-2.4L18.3,38l3.8-8.4l1.1,8.3c0,0.4,0.1,0.8,0.4,1.1l5.5,7.4c0.4,0.5,0.9,0.7,1.5,0.7c0.4,0,0.8-0.1,1.1-0.4
	c0.8-0.6,1-1.8,0.4-2.6l-5-6.9V14.4l4.3,4.4c0.6,0.6,1.6,0.7,2.3,0.2l5.5-3.7C40,14.7,40.3,13.6,39.7,12.7z"/>
<path d="M49,25c-2,0-2.7-1-4.6-1c-0.4,0-0.5,0.3-0.5,1c0,1.3,0,5.6,0,7s-0.2,4-4,4c-3.4,0-4-2.2-4-3c0-1.8,1.1-3,4-3c2,0,2-0.9,2-2
	c0-4,0-6.4,0-7c0-0.5,0.2-1,1-1c3.4,0,2.4,1,6,1c0.6,0,1,0.2,1,1c0,0.5,0,0.8,0,2.1C50,25,49,25,49,25z"/>
</svg>
