<?xml version="1.0" encoding="utf-8"?>
<!-- Generator: Adobe Illustrator 17.0.2, SVG Export Plug-In . SVG Version: 6.00 Build 0)  -->
<!DOCTYPE svg PUBLIC "-//W3C//DTD SVG 1.1//EN" "http://www.w3.org/Graphics/SVG/1.1/DTD/svg11.dtd">
<svg version="1.1" id="Layer_1" xmlns="http://www.w3.org/2000/svg" xmlns:xlink="http://www.w3.org/1999/xlink" x="0px" y="0px"
	 width="50px" height="50px" viewBox="0 0 50 50" enable-background="new 0 0 50 50" xml:space="preserve">
<path fill="none" stroke="#fff" stroke-width=".6" stroke-linecap="round" stroke-linejoin="round" stroke-miterlimit="18" d="
	M32.9,11.952C29.123,3.446,21.014,1,15.001,1C0.515,1,1.002,13.391,1.002,15.007c0,1.4,0.892,1.993,1.993,1.993
	s1.993-0.892,1.993-1.993c0-2.265-3.041-1.245-1.185-5.838"/>
<path fill="none" stroke="#fff" stroke-width=".6" stroke-linecap="round" stroke-linejoin="round" stroke-miterlimit="18" d="
	M43.495,45.148c-3.821,4.258-4.392-0.139-6.5-0.1322c-1.102,0-1.995,0.893-1.995,1.995s1.027,1.995,1.995,1.995
	C41.584,48.998,49,46.784,49,31.389c0-10.886-9.503-16.39-17.999-16.39c-16.035,0-29.999,10.474-29.999,21.909
	c0,6.797,4.795,12.09,12,12.09c14.17,0,21.999-13.54,21.999-25.856c0-1.483-0.083-2.873-0.241-4.175"/>
</svg>
