<?xml version="1.0" encoding="utf-8"?>
<!-- Generator: Adobe Illustrator 17.1.0, SVG Export Plug-In . SVG Version: 6.00 Build 0)  -->
<!DOCTYPE svg PUBLIC "-//W3C//DTD SVG 1.0//EN" "http://www.w3.org/TR/2001/REC-SVG-20010904/DTD/svg10.dtd">
<svg version="1.0" id="Layer_1" xmlns="http://www.w3.org/2000/svg" xmlns:xlink="http://www.w3.org/1999/xlink" x="0px" y="0px"
	 width="50px" height="50px" viewBox="0 0 50 50" style="enable-background:new 0 0 50 50;" xml:space="preserve">
<rect style="fill:none;" width="50" height="50"/>
<path style="fill:none;stroke:#000000;stroke-width:2;stroke-linecap:round;stroke-linejoin:round;stroke-miterlimit:10;" d="
	M40,8.5c0,2.5,2,4.5,4.5,4.5C47,13,49,11,49,8.5C49,6,47,4,44.5,4C42,4,40,6,40,8.5z"/>
<path style="fill:none;stroke:#000000;stroke-width:2;stroke-linecap:round;stroke-linejoin:round;stroke-miterlimit:10;" d="
	M23.4,38c0,0-5,5.1-6.6,7c-1.2,1.4-1.4,2.7-0.6,3.6c0.9,0.8,2,0.6,4-1.2c1.7-1.5,9.4-9.3,9.4-9.3"/>
<path style="fill:none;stroke:#000000;stroke-width:2;stroke-linecap:round;stroke-linejoin:round;stroke-miterlimit:10;" d="
	M39.1,13.8c-0.7-1.3-2.5-4-2.5-4c-0.2-0.4-7.8-5.4-7.8-5.4C28.3,4,27.7,3.9,27.1,4L16.8,5.1c-1.4,0.4-2.8,1-2.6,2.3
	c0.1,0.8,1.7,1.1,2.6,1l9.9-0.2l4.2,3.3l-8.3,5.8c-2.2,1.6-3.6,3.3-2,6.1l7.1,10.4c0,0-9.7,0.1-11.5,0.3c-1.7,0.2-2.3,1-2.3,2
	c0,0.9,0.6,2,2.3,2s16.1,0,16.1,0c2.1,0,3.2-1.3,2.2-3.1c-0.8-1.5-6.9-11-6.9-11c0,0,0,0,0,0c0,0,9.6-6.1,10.7-6.8
	S40,15.4,39.1,13.8z"/>
<path style="fill:none;stroke:#000000;stroke-width:2;stroke-linecap:round;stroke-linejoin:round;stroke-miterlimit:10;" d="
	M35.2,19.1l0.8,4.6c0.3,0.7,0.6,1.2,1.4,1.3c0,0,6.9-0.4,8.4-0.4c1.6-0.1,2.8-0.6,2.9-1.7c0.1-1.6-1.1-1.4-2.5-1.5l-6-0.3l-0.5-5.6"
	/>
<g>
	
		<line style="fill:none;stroke:#000000;stroke-width:2.0218;stroke-linecap:round;stroke-linejoin:round;stroke-miterlimit:10;" x1="20" y1="13" x2="1" y2="13"/>
	
		<line style="fill:none;stroke:#000000;stroke-width:2.0218;stroke-linecap:round;stroke-linejoin:round;stroke-miterlimit:10;" x1="15" y1="18" x2="1" y2="18"/>
	
		<line style="fill:none;stroke:#000000;stroke-width:2.0218;stroke-linecap:round;stroke-linejoin:round;stroke-miterlimit:10;" x1="15" y1="23" x2="1" y2="23"/>
	
		<line style="fill:none;stroke:#000000;stroke-width:2.0218;stroke-linecap:round;stroke-linejoin:round;stroke-miterlimit:10;" x1="19" y1="28" x2="1" y2="28"/>
</g>
</svg>
