<?xml version="1.0" encoding="utf-8"?>
<!-- Generator: Adobe Illustrator 17.0.0, SVG Export Plug-In . SVG Version: 6.00 Build 0)  -->
<!DOCTYPE svg PUBLIC "-//W3C//DTD SVG 1.1//EN" "http://www.w3.org/Graphics/SVG/1.1/DTD/svg11.dtd">
<svg version="1.1" id="Layer_1" xmlns="http://www.w3.org/2000/svg" xmlns:xlink="http://www.w3.org/1999/xlink" x="0px" y="0px"
	 width="50px" height="50px" viewBox="0 0 50 50" enable-background="new 0 0 50 50" xml:space="preserve">

<circle fill="none" stroke="#000000" stroke-width="2" stroke-miterlimit="10" cx="25" cy="6" r="5"/>
<path fill="none" stroke="#000000" stroke-width="2" stroke-linecap="round" stroke-linejoin="round" stroke-miterlimit="10" d="
	M37.899,29.915l-5.514-1.3V21.61c0.685,1.428,1.696,3.525,1.933,3.948c0.404,0.721,0.577,0.837,1.298,1.269
	c0.891,0.534,4.684,2.55,6.209,3.187c1.652,0.69,2.779,0.467,3.285-0.444c0.506-0.91-0.01-2.193-1.54-3.052
	c-1.489-0.837-5.247-3.24-5.247-3.24l-2.413-6.81L35.9,16.467c-0.336-1.103-1.164-1.982-2.239-2.38C33.158,13.893,28.148,12,25,12
	c-3.091,0-8.055,1.852-8.719,2.104c-1.048,0.408-1.85,1.279-2.181,2.362l-0.009,0.001l-2.413,6.81c0,0-3.757,2.403-5.247,3.24
	c-1.53,0.859-2.047,2.142-1.54,3.052c0.506,0.91,1.633,1.134,3.285,0.444c1.525-0.637,5.319-2.653,6.209-3.187
	c0.721-0.433,0.894-0.548,1.298-1.269c0.237-0.423,1.248-2.52,1.933-3.948v7.006l-5.469,1.342"/>
<path fill="none" stroke="#000000" stroke-width="2" stroke-miterlimit="10" d="M42.81,31.267c-0.852-1.963-3.273-2.054-4.685-1.315
	l-20.18,10.253c-1.316,0.599-1.898,2.152-1.297,3.467c0.861,1.885,3.098,1.465,3.467,1.297l21.396-9.262
	C42.895,35.135,43.662,33.23,42.81,31.267z"/>
<path fill="none" stroke="#000000" stroke-width="2" stroke-miterlimit="10" d="M18.255,39.934l-9.766-4.228
	c-1.384-0.571-2.151-2.476-1.299-4.439c0.852-1.963,3.273-2.054,4.685-1.315l12.787,6.497"/>
<path fill="none" stroke="#000000" stroke-width="2" stroke-miterlimit="10" d="M31.603,39.976l0.451,0.229
	c1.316,0.599,1.898,2.152,1.297,3.467c-0.861,1.885-3.098,1.465-3.467,1.297l-4.772-2.066"/>
<path fill="none" stroke="#000000" stroke-width="2" stroke-linecap="round" stroke-linejoin="round" stroke-miterlimit="10" d="
	M37.923,49H12.077"/>
</svg>
