<?xml version="1.0" encoding="utf-8"?>
<!-- Generator: Adobe Illustrator 17.0.0, SVG Export Plug-In . SVG Version: 6.00 Build 0)  -->
<!DOCTYPE svg PUBLIC "-//W3C//DTD SVG 1.1//EN" "http://www.w3.org/Graphics/SVG/1.1/DTD/svg11.dtd">
<svg version="1.1" id="Layer_1" xmlns="http://www.w3.org/2000/svg" xmlns:xlink="http://www.w3.org/1999/xlink" x="0px" y="0px"
	 width="50px" height="50px" viewBox="0 0 50 50" enable-background="new 0 0 50 50" xml:space="preserve">

<g>
	<path fill="none" stroke="#000000" stroke-width="1.7831" stroke-linecap="round" stroke-miterlimit="10" d="M49,3
		c0,1.106-2.238,2-4.996,2C41.238,5,39,4.106,39,3c0-1.104,2.238-2,5.004-2C46.762,1,49,1.896,49,3z"/>
</g>
<path fill="none" stroke="#000000" stroke-width="2" stroke-linecap="round" stroke-linejoin="round" stroke-miterlimit="10" d="
	M33.776,1.116c-1.991-0.449-3.337,5.58-4.767,7.683c-0.779,1.146-5.047,3.785-5.047,3.785S21.046,14,17.793,14
	c-0.866,0-3.692-0.117-5.057,0.906c-1.127,0.845-4.301,5.902-4.493,6.768c-0.141,0.634-0.661,6.539-0.626,8.304
	c0.035,1.726,0.822,1.952,1.251,1.991c0.626,0.057,1.202-0.53,1.365-1.706c0.284-2.048,0.638-5.416,0.91-6.199
	c0.42-1.211,3.811-4.778,3.811-4.778s0.171,6.029,0.057,8.418c-0.291,0.908-3.593,6.442-4.314,7.163
	c-0.521,0.521-4.382,1.237-7.424,2.217c-0.922,0.297-1.598,1.34-1.392,2.114c0.282,1.057,1.083,1.289,2.371,1.186
	c1.079-0.086,8.429-1.404,9.022-1.65c1.495-0.619,5.781-6.507,6.487-8.413c0,2.28-0.677,6.895-1.051,7.791
	c-0.426,1.021-3.861,5.788-5.879,8.404c-0.527,0.683-0.037,1.906,0.374,2.167c0.558,0.355,1.277,0.599,2.429-0.374
	c0.75-0.633,7.236-8.026,7.541-8.534c0.561-0.934,1.77-6.466,1.846-11.446c0.057-3.754,0.154-7.669-0.021-10.782
	c0,0,5.48-3.718,6.701-5.664C32.794,9.499,36.82,1.802,33.776,1.116z"/>
<circle fill="none" stroke="#000000" stroke-width="2" stroke-linecap="round" stroke-miterlimit="10" cx="18.5" cy="7.5" r="4.5"/>
</svg>
