<?xml version="1.0" encoding="utf-8"?>
<!-- Generator: Adobe Illustrator 17.1.0, SVG Export Plug-In . SVG Version: 6.00 Build 0)  -->
<!DOCTYPE svg PUBLIC "-//W3C//DTD SVG 1.1//EN" "http://www.w3.org/Graphics/SVG/1.1/DTD/svg11.dtd">
<svg version="1.1" id="Layer_1" xmlns="http://www.w3.org/2000/svg" xmlns:xlink="http://www.w3.org/1999/xlink" x="0px" y="0px"
	 width="50px" height="50px" viewBox="0 0 50 50" style="enable-background:new 0 0 50 50;" xml:space="preserve">
<style type="text/css">
	.st0{fill:none;stroke:#000000;stroke-width:2;stroke-miterlimit:10;}
	.st1{fill:none;stroke:#000000;stroke-width:2;stroke-linecap:round;stroke-linejoin:round;stroke-miterlimit:10;}
	.st2{fill:none;stroke:#000000;stroke-width:2;stroke-linecap:round;stroke-miterlimit:10;}
</style>
<path class="st0" d="M32.1,6.5c0,3.1-2.5,5.5-5.5,5.5c-3.1,0-5.5-2.5-5.5-5.5C21,3.5,23.5,1,26.6,1C29.6,1,32.1,3.5,32.1,6.5z"/>
<path class="st1" d="M36.1,35.6l4.4,11.9c0.4,1.2,1.7,1.8,2.9,1.3l0,0c1.2-0.4,1.8-1.8,1.3-3l-7.6-20.3"/>
<path class="st2" d="M24.9,11.9l-16,6.6c-1.9,0.7-2.9,2.9-2.2,4.8l0.5,1.4c0.7,1.9,2.9,2.9,4.8,2.2l0,0c0.4-0.2,0.6-0.6,0.5-1
	l-2.1-4c-0.3-0.5,0-1.1,0.5-1.4l18.8-7.3"/>
<path class="st1" d="M13,13.3C13,5,18,1.9,18,1.9"/>
<path class="st1" d="M32.2,6.6c2.1,0.8,3.4,3.1,3.6,4.3l-6.2,2.4c-0.1,0-0.1,0-0.2,0.1L28,13.9c-1.7,0.6-2.5,2.5-1.8,4.2l4.2,10.7
	l0.4,7.8l-4,8.9c-0.5,1.2,0,2.7,1.2,3.3l0,0c1.3,0.6,2.8,0,3.4-1.3l4.3-10.1l1.4-9.2c0.2-1.6,0.1-3.2-0.4-4.8l-2.5-7.8l4-1.8
	c0.6-0.3,1.4-0.9,1.2-2c-1-5.1-5.1-9.1-11.6-10.6"/>
<path class="st1" d="M13,1.9c0,0-6,5.3-7,14.1"/>
</svg>
