<?xml version="1.0" encoding="utf-8"?>
<!-- Generator: Adobe Illustrator 17.0.0, SVG Export Plug-In . SVG Version: 6.00 Build 0)  -->
<!DOCTYPE svg PUBLIC "-//W3C//DTD SVG 1.1//EN" "http://www.w3.org/Graphics/SVG/1.1/DTD/svg11.dtd">
<svg version="1.1" id="Layer_1" xmlns="http://www.w3.org/2000/svg" xmlns:xlink="http://www.w3.org/1999/xlink" x="0px" y="0px"
	 width="50px" height="50px" viewBox="0 0 50 50" enable-background="new 0 0 50 50" xml:space="preserve">

<path fill="none" stroke="#000000" stroke-width="2" stroke-linecap="round" stroke-linejoin="round" stroke-miterlimit="10" d="
	M30.385,41.615c0,0-2.947,0.46-7.086,1.17c-3.27,0.561-5.838,1.224-5.838,3.31c0,2.331,3.885,2.905,5.001,2.905s10.562,0,12.143,0
	s7.01-0.058,7.01-3.087c0-1.885-1.528-2.901-3.391-4.142c-3.534-2.356-5.84-3.697-5.84-4.974v-7.129
	c0.866,1.607,2.313,4.293,2.512,4.677c0.286,0.552,0.729,1.212,1.301,1.762s4.59,3.717,5.53,4.457
	c1.306,1.027,2.582,1.263,3.523,0.418s1.006-2.46-0.135-3.391s-5.895-5.113-5.895-5.113l-3.288-8.544L35.9,23.927
	c-0.396-1.298-1.473-2.294-2.826-2.55c-0.684-0.263-4.516-1.671-8.074-1.671c-3.923,0-8.106,1.659-8.106,1.659l0.001,0.015
	c-1.339,0.265-2.402,1.259-2.796,2.547l-0.033,0.005l-3.288,8.544c0,0-4.755,4.182-5.895,5.113s-1.075,2.546-0.135,3.391
	s2.217,0.61,3.523-0.418c0.94-0.74,4.958-3.907,5.53-4.457s1.015-1.21,1.301-1.762c0.199-0.383,1.646-3.07,2.512-4.677v7.213
	c0,1.366-3.011,2.97-4.939,4.168c-2.419,1.503-4.292,2.512-4.292,4.585c0,2.365,2.499,3.367,4.682,3.367c1.667,0,9.463,0,9.463,0"/>
<circle fill="none" stroke="#000000" stroke-width="2" stroke-miterlimit="10" cx="25" cy="14" r="5"/>
</svg>
