<?xml version="1.0" encoding="utf-8"?>
<!-- Generator: Adobe Illustrator 17.0.0, SVG Export Plug-In . SVG Version: 6.00 Build 0)  -->
<!DOCTYPE svg PUBLIC "-//W3C//DTD SVG 1.1//EN" "http://www.w3.org/Graphics/SVG/1.1/DTD/svg11.dtd">
<svg version="1.1" id="Layer_1" xmlns="http://www.w3.org/2000/svg" xmlns:xlink="http://www.w3.org/1999/xlink" x="0px" y="0px"
	 width="50px" height="50px" viewBox="0 0 50 50" enable-background="new 0 0 50 50" xml:space="preserve">

<path fill="none" stroke="#000000" stroke-width="2" stroke-linecap="round" stroke-linejoin="round" stroke-miterlimit="10" d="
	M29.569,22.097c-1.279-3.36,1.762-9.893,10.831-9.893c6.388,0,8.569,5.627,8.569,10.633c0,7.701-7.65,8.855-7.65,8.855
	s-3.858,13.529-15.671,13.529c-4.137,0-6.444-0.609-8.036-0.692c-1.59-0.081-3.2,0.728-4.075,0.728
	c-1.034,0-6.838-4.334-8.891-9.793c-3.103-8.255-3.27-14.476-3.49-17.804c-0.303-4.557,0.402-7.415,2.649-9.62
	C5.105,6.765,6.925,5.15,8.817,4.894c2.135-0.289,3.078,0.907,4.5,1.933c1.426,1.028,1.944,1.513,2.279,2.683
	c0.115,0.404,0.173,1.385-0.577,1.442c0.173,0.635-0.462,1.789-1.356,1.558c0.202,0.836-0.923,1.5-1.5,1.327
	c0.173,0.808-1.067,0.952-1.5,0.952c-0.317,0-0.75-0.029-1.125-0.144c-0.058,0-0.952-0.433-0.635-0.923
	c-0.664,1.038-2.135,0.491-1.615,1.817c0.383,0.979,1.56,4.839,4.419,7.515c3.263,3.055,4.424,6.024,5.339,8.314
	C17.352,29.002,18.343,20.537,29.569,22.097z"/>
</svg>
