<?xml version="1.0" encoding="utf-8"?>
<!-- Generator: Adobe Illustrator 17.1.0, SVG Export Plug-In . SVG Version: 6.00 Build 0)  -->
<!DOCTYPE svg PUBLIC "-//W3C//DTD SVG 1.1//EN" "http://www.w3.org/Graphics/SVG/1.1/DTD/svg11.dtd">
<svg version="1.1" id="Layer_1" xmlns="http://www.w3.org/2000/svg" xmlns:xlink="http://www.w3.org/1999/xlink" x="0px" y="0px"
	 width="50px" height="50px" viewBox="0 0 50 50" style="enable-background:new 0 0 50 50;" xml:space="preserve">
<g>
	
		<circle style="fill:none;stroke:#000000;stroke-width:2;stroke-linecap:round;stroke-linejoin:round;stroke-miterlimit:10;" cx="16.5" cy="4.5" r="3.5"/>
</g>
<g>
	<path style="fill:none;stroke:#000000;stroke-width:2;stroke-linecap:round;stroke-linejoin:round;stroke-miterlimit:10;" d="
		M38,8.5c0,2.5-2,4.5-4.5,4.5S29,11,29,8.5C29,6,31,4,33.5,4S38,6,38,8.5z"/>
</g>
<path style="fill:none;stroke:#000000;stroke-width:2;stroke-linecap:round;stroke-linejoin:round;stroke-miterlimit:10;" d="
	M40.6,23.4l-5.4-6.8c-0.3-0.3-0.6-0.6-1-0.8c-1.6-0.8-5.3-2.8-6.5-3.3c-1.5-0.7-3.2-0.8-3.2-0.8l-6.3-0.5c0,0-3.9-3.4-5.1-4.3
	c-2.3-2-4.3-0.2-2.3,2c0.6,0.7,4,4.4,5.3,5.7c0.4,0.4,0.7,0.7,1.2,0.8l4.7,0.8L14.4,28c0,0-2.6,3.7-4.1,6.6c-1,1.9,1.1,3.4,3.2,1.4
	c1.4-1.3,8.2-8.2,8.2-8.2s-8.3,17.3-8.9,18.5c-0.5,1-1.5,2.7,0.4,3.4c1.7,0.7,3.2-1.9,3.2-1.9l17-26.7c0,0,3.1,2.6,3.7,3.1
	c0.7,0.5,0.5,0.9,0.4,1.6c-0.2,0.7-0.9,3.1-1.1,3.9c-0.2,0.7-0.5,1.8,0.5,2.2c1.1,0.4,1.9-0.8,2.2-1.5c0.2-0.5,1.2-2.8,1.8-4.7
	C41,25,41.1,24.1,40.6,23.4z"/>
</svg>
