<?xml version="1.0" encoding="utf-8"?>
<!-- Generator: Adobe Illustrator 17.0.2, SVG Export Plug-In . SVG Version: 6.00 Build 0)  -->
<!DOCTYPE svg PUBLIC "-//W3C//DTD SVG 1.1//EN" "http://www.w3.org/Graphics/SVG/1.1/DTD/svg11.dtd">
<svg version="1.1" id="Layer_1" xmlns="http://www.w3.org/2000/svg" xmlns:xlink="http://www.w3.org/1999/xlink" x="0px" y="0px"
	 width="50px" height="50px" viewBox="0 0 50 50" enable-background="new 0 0 50 50" xml:space="preserve">
<ellipse fill="none" stroke="#000000" stroke-width="2" stroke-linecap="round" stroke-linejoin="round" stroke-miterlimit="10" cx="25" cy="7.5" rx="17" ry="6.5"/>
<path fill="none" stroke="#000000" stroke-width="2" stroke-linecap="round" stroke-linejoin="round" stroke-miterlimit="10" d="
	M29,20.808c8.328-0.832,13-4.222,13-7.363V7.778"/>
<path fill="none" stroke="#000000" stroke-width="2" stroke-linecap="round" stroke-linejoin="round" stroke-miterlimit="10" d="
	M8,7.778v5.667c0,3.163,4.673,6.537,13,7.364"/>
<path fill="none" stroke="#000000" stroke-width="2" stroke-linecap="round" stroke-linejoin="round" stroke-miterlimit="10" d="
	M47.143,34.277l1.591,3.333c1.393,2.917-2.908,6.844-7.876,9.216c-4.968,2.372-10.726,3.247-12.119,0.33l-1.591-3.333"/>
<path fill="none" stroke="#000000" stroke-width="2" stroke-linecap="round" stroke-linejoin="round" stroke-miterlimit="10" d="
	M29.001,27.516c3.7,2.719,5.976,7.949,5.976,7.949"/>
<path fill="none" stroke="#000000" stroke-width="2" stroke-linecap="round" stroke-linejoin="round" stroke-miterlimit="10" d="
	M14.719,35.344c0,0,2.486-5.157,6.28-7.845"/>
<polyline fill="none" stroke="#000000" stroke-width="2" stroke-linecap="round" stroke-linejoin="round" stroke-miterlimit="10" points="
	21,14 21,28 29,28 29,14 "/>
<ellipse transform="matrix(0.9024 -0.4308 0.4308 0.9024 -13.1957 19.818)" fill="none" stroke="#000000" stroke-width="2" stroke-linecap="round" stroke-linejoin="round" stroke-miterlimit="10" cx="37.158" cy="39.043" rx="11.064" ry="4.149"/>
<path fill="none" stroke="#000000" stroke-width="2" stroke-linecap="round" stroke-linejoin="round" stroke-miterlimit="10" d="
	M2.857,34.277L1.266,37.61c-1.393,2.917,2.908,6.844,7.876,9.216c4.968,2.372,10.726,3.247,12.119,0.33l1.591-3.333"/>
<ellipse transform="matrix(-0.9024 -0.4308 0.4308 -0.9024 7.6105 79.8102)" fill="none" stroke="#000000" stroke-width="2" stroke-linecap="round" stroke-linejoin="round" stroke-miterlimit="10" cx="12.842" cy="39.043" rx="11.064" ry="4.149"/>
</svg>
