<?xml version="1.0" encoding="utf-8"?>
<!-- Generator: Adobe Illustrator 17.1.0, SVG Export Plug-In . SVG Version: 6.00 Build 0)  -->
<!DOCTYPE svg PUBLIC "-//W3C//DTD SVG 1.1//EN" "http://www.w3.org/Graphics/SVG/1.1/DTD/svg11.dtd">
<svg version="1.1" id="Layer_1" xmlns="http://www.w3.org/2000/svg" xmlns:xlink="http://www.w3.org/1999/xlink" x="0px" y="0px"
	 width="50px" height="50px" viewBox="0 0 50 50" style="enable-background:new 0 0 50 50;" xml:space="preserve">
<style type="text/css">
	.st0{fill:none;stroke:#000000;stroke-width:2;stroke-linecap:round;stroke-linejoin:round;stroke-miterlimit:10;}
	.st1{fill:none;stroke:#000000;stroke-width:2;stroke-miterlimit:10;}
	.st2{fill:none;stroke:#000000;stroke-width:2;stroke-linejoin:round;stroke-miterlimit:10;}
</style>
<polygon class="st0" points="49,21 1,6 49,6 45.3,9.8 "/>
<path class="st1" d="M16,19.5c0,1.9,1.6,3.5,3.5,3.5c1.9,0,3.5-1.6,3.5-3.5c0-1.9-1.6-3.5-3.5-3.5C17.6,16,16,17.6,16,19.5z"/>
<g>
	<line class="st0" x1="28.2" y1="26.4" x2="25" y2="13.5"/>
	<line class="st0" x1="14.9" y1="10.3" x2="10" y2="31"/>
</g>
<path class="st2" d="M44.5,40.9c0,0-9.6-10.9-10.3-11.6c-0.7-0.8-1.2-1.5-2.2-1.7l-8.5-2.4c-1.2-0.3-2.7-0.2-3.7,1.2L15.9,31
	c0,0-5.9,0-5.9,0c-1.1,0-2,0.9-2,2s0.9,2,2,2c0,0,6.3,0,6.3,0c0.8,0,1.6-0.3,2.1-0.9l2.9-3.1l9.6,2.7l11.1,9.9
	c0.4,0.4,0.8,0.5,1.3,0.5s0.9-0.2,1.3-0.5C45.2,42.8,45.2,41.6,44.5,40.9z"/>
</svg>
