<?xml version="1.0" encoding="utf-8"?>
<!-- Generator: Adobe Illustrator 17.1.0, SVG Export Plug-In . SVG Version: 6.00 Build 0)  -->
<!DOCTYPE svg PUBLIC "-//W3C//DTD SVG 1.1//EN" "http://www.w3.org/Graphics/SVG/1.1/DTD/svg11.dtd">
<svg version="1.1" id="Layer_1" xmlns="http://www.w3.org/2000/svg" xmlns:xlink="http://www.w3.org/1999/xlink" x="0px" y="0px"
	 width="50px" height="50px" viewBox="0 0 50 50" style="enable-background:new 0 0 50 50;" xml:space="preserve">
<style type="text/css">
	.st0{fill:none;stroke:#000000;stroke-width:2;stroke-miterlimit:10;}
	.st1{fill:none;stroke:#000000;stroke-width:2;stroke-linecap:round;stroke-linejoin:round;stroke-miterlimit:10;}
</style>
<path class="st0" d="M42,15.5c0,1.9,1.6,3.5,3.5,3.5c1.9,0,3.5-1.6,3.5-3.5c0-1.9-1.6-3.5-3.5-3.5C43.6,12,42,13.6,42,15.5z"/>
<path class="st1" d="M21.6,41.6C27.4,15.8,34.2,1,34.2,1S8,4.9,1,32.7L21.6,41.6z"/>
<path class="st1" d="M49,48.6c-0.5,0.2-1.1,0.3-1.8,0.3c-1.5,0-3.9-0.4-5.5-1.7c-1.6,1.3-4,1.7-5.5,1.7c-1.5,0-3.9-0.4-5.5-1.7
	c-1.6,1.3-4,1.7-5.5,1.7s-3.9-0.4-5.5-1.7c-1.6,1.3-4,1.7-5.5,1.7c-1.5,0-3.9-0.4-5.5-1.7c-1.6,1.3-4,1.7-5.5,1.7
	c-0.7,0-1.3-0.1-1.8-0.1"/>
<path class="st1" d="M44.9,22.1C44.6,22,44.4,22,44.1,22c0,0,0,0-0.1,0h-7.7c0,0-3.8-2.6-3.9-2.7c-0.3-0.2-0.6-0.3-0.9-0.3
	c-0.8,0-1.5,0.7-1.5,1.5c0,0.6,0.3,1.1,0.8,1.3c0,0,0,0,0,0l4.2,2.8c0.3,0.2,0.7,0.4,1.1,0.4h4.3l-3,7.8c0,0.1,0,0.1,0,0.2h-4.3
	c-0.6,0-1.1,0.2-1.6,0.6l-5.8,5.2c-0.8,0.7-0.9,1.8-0.2,2.6c0.4,0.4,0.9,0.6,1.4,0.6c0.4,0,0.9-0.1,1.2-0.4l4.9-4.6c0,0,6.8,0,7,0
	c0.6,0,1.1-0.1,1.6-0.4c0.8-0.4,1.4-1.1,1.7-2l3.2-8.5C47.4,24.4,46.6,22.6,44.9,22.1z"/>
</svg>
