<?xml version="1.0" encoding="utf-8"?>
<!-- Generator: Adobe Illustrator 17.0.0, SVG Export Plug-In . SVG Version: 6.00 Build 0)  -->
<!DOCTYPE svg PUBLIC "-//W3C//DTD SVG 1.1//EN" "http://www.w3.org/Graphics/SVG/1.1/DTD/svg11.dtd">
<svg version="1.1" id="Layer_1" xmlns="http://www.w3.org/2000/svg" xmlns:xlink="http://www.w3.org/1999/xlink" x="0px" y="0px"
	 width="50px" height="50px" viewBox="0 0 50 50" enable-background="new 0 0 50 50" xml:space="preserve">

<path fill="none" stroke="#000000" stroke-width="2" stroke-linecap="round" stroke-linejoin="round" stroke-miterlimit="10" d="
	M24.064,1c-2.328,2.099-5.734,7.669-6.545,11.51c-1.973,2.101-1.906,4.23-0.37,6.841c1.109,1.88,0.865,4.109,1.368,6.468
	c0.413,1.911,1.576,3.918,2.272,5.784c1.565,4.183,3.093,8.969,1.98,10.949c-1.175,2.093-2.818,1.722-4.783,2.558
	c-2.062,0.883-3.361,1.266-4.139,1.41c-1.986,0.368-1.788,0.548-1.788,0.894c0,0.894,0.808,1.558,1.731,1.558
	c0.519,0,1.096-0.144,1.5-0.375C15.836,48.971,16.439,49,17.115,49c5.587,0,5.36-0.519,7.462-0.519c0.865,0,2.625,0.519,4.641,0.519
	c2.017,0,2.683-1.432,2.683-2.666c0-2.191-2.175-3.179-3.083-9.478c-0.948-6.581,0.846-10.563,0.406-13.353
	c-0.675-4.31-3.188-6.017-3.021-6.789c0.169-0.772,1.316-2.222,2.996-3.015C31.146,12.779,40.144,7.371,42.393,1"/>
</svg>
