<?xml version="1.0" encoding="utf-8"?>
<!-- Generator: Adobe Illustrator 17.0.0, SVG Export Plug-In . SVG Version: 6.00 Build 0)  -->
<!DOCTYPE svg PUBLIC "-//W3C//DTD SVG 1.1//EN" "http://www.w3.org/Graphics/SVG/1.1/DTD/svg11.dtd">
<svg version="1.1" id="Layer_1" xmlns="http://www.w3.org/2000/svg" xmlns:xlink="http://www.w3.org/1999/xlink" x="0px" y="0px"
	 width="50px" height="50px" viewBox="0 0 50 50" enable-background="new 0 0 50 50" xml:space="preserve">

<g>
	<g>
		<path d="M25,17.769c8.059,0,14.615,6.556,14.615,14.615S33.059,47,25,47s-14.615-6.556-14.615-14.615S16.941,17.769,25,17.769
			 M25,15.769c-9.176,0-16.615,7.439-16.615,16.615C8.385,41.561,15.824,49,25,49s16.615-7.439,16.615-16.615
			C41.615,23.208,34.176,15.769,25,15.769L25,15.769z"/>
	</g>
</g>
<line fill="none" stroke="#000000" stroke-width="2" stroke-linecap="round" stroke-linejoin="round" stroke-miterlimit="10" x1="24.612" y1="16.531" x2="32.416" y2="1"/>
<line fill="none" stroke="#000000" stroke-width="2" stroke-linecap="round" stroke-linejoin="round" stroke-miterlimit="10" x1="28.692" y1="1" x2="20.471" y2="17.46"/>
<line fill="none" stroke="#000000" stroke-width="2" stroke-linecap="round" stroke-linejoin="round" stroke-miterlimit="10" x1="35.541" y1="20.743" x2="45.339" y2="1"/>
<line fill="none" stroke="#000000" stroke-width="2" stroke-linecap="round" stroke-linejoin="round" stroke-miterlimit="10" x1="41.615" y1="1" x2="32.744" y2="18.522"/>
<line fill="none" stroke="#000000" stroke-width="2" stroke-linecap="round" stroke-linejoin="round" stroke-miterlimit="10" x1="23.034" y1="11.488" x2="17.584" y2="1"/>
<line fill="none" stroke="#000000" stroke-width="2" stroke-linecap="round" stroke-linejoin="round" stroke-miterlimit="10" x1="21.308" y1="1" x2="24.734" y2="7.664"/>
<line fill="none" stroke="#000000" stroke-width="2" stroke-linecap="round" stroke-linejoin="round" stroke-miterlimit="10" x1="14.436" y1="20.692" x2="4.661" y2="1"/>
<line fill="none" stroke="#000000" stroke-width="2" stroke-linecap="round" stroke-linejoin="round" stroke-miterlimit="10" x1="8.385" y1="1" x2="17.003" y2="18.203"/>
<g>
	<path d="M23.477,40.497v-9.231h-3.061v-2.381c3.255,0,3.727-2.433,3.836-3.158h2.917v14.769H23.477z"/>
</g>
</svg>
