<?xml version="1.0" encoding="utf-8"?>
<!-- Generator: Adobe Illustrator 17.0.0, SVG Export Plug-In . SVG Version: 6.00 Build 0)  -->
<!DOCTYPE svg PUBLIC "-//W3C//DTD SVG 1.1//EN" "http://www.w3.org/Graphics/SVG/1.1/DTD/svg11.dtd">
<svg version="1.1" id="Layer_1" xmlns="http://www.w3.org/2000/svg" xmlns:xlink="http://www.w3.org/1999/xlink" x="0px" y="0px"
	 width="50px" height="50px" viewBox="0 0 50 50" enable-background="new 0 0 50 50" xml:space="preserve">

<circle fill="none" stroke="#000000" stroke-width="2" stroke-linecap="round" stroke-linejoin="round" stroke-miterlimit="10" cx="25" cy="13.923" r="5.539"/>
<path fill="none" stroke="#000000" stroke-width="2" stroke-linecap="round" stroke-linejoin="round" stroke-miterlimit="10" d="
	M17.615,35.94v0.94c0,1.366-3.428,3.271-5.355,4.468c-2.419,1.503-3.875,2.211-3.875,4.285c0,2.365,2.499,3.367,4.682,3.367
	c1.667,0,8.221,0,8.221,0"/>
<path fill="none" stroke="#000000" stroke-width="2" stroke-linecap="round" stroke-linejoin="round" stroke-miterlimit="10" d="
	M30.385,41.615c0,0-2.948,0.46-7.086,1.17c-3.27,0.561-5.838,1.224-5.838,3.31c0,2.331,1.885,2.905,3.001,2.905
	c1.115,0,12.562,0,14.143,0c1.582,0,7.01-0.058,7.01-3.087c0-2.234-1.468-3.027-3.332-4.145c-3.693-2.213-5.899-3.694-5.899-4.972
	V35.94"/>
<path fill="none" stroke="#000000" stroke-width="2" stroke-linecap="round" stroke-linejoin="round" stroke-miterlimit="10" d="
	M32.88,31.186c-1.42-0.595-3.481-1.374-5.588-2.198c-0.87-3.435-1.161-5.511-2.293-5.511s-1.422,2.076-2.293,5.511
	c-2.107,0.824-4.168,1.603-5.588,2.198"/>
<path fill="none" stroke="#000000" stroke-width="2" stroke-linecap="round" stroke-linejoin="round" stroke-miterlimit="10" d="
	M25,33.476c-1.132,0-10.692,3.684-10.692,3.684c-1.373,0.458-1.997,0.556-2.625,0.207c-1.426-0.792-1.623-2.135-1.036-3.66
	c0.621-1.614,2.799-8.16,3.42-9.774l0.033-0.005c0.393-1.288,1.456-2.282,2.796-2.547l-0.001-0.015c0,0,4.183-1.659,8.106-1.659
	c3.558,0,7.39,1.408,8.074,1.671c1.353,0.256,2.43,1.253,2.826,2.55l0.033,0.005c0.621,1.615,2.799,8.16,3.42,9.774
	c0.587,1.526,0.39,2.868-1.036,3.66c-0.627,0.348-1.251,0.25-2.625-0.207C35.692,37.16,26.132,33.476,25,33.476z"/>
</svg>
