<?xml version="1.0" encoding="utf-8"?>
<!-- Generator: Adobe Illustrator 17.0.0, SVG Export Plug-In . SVG Version: 6.00 Build 0)  -->
<!DOCTYPE svg PUBLIC "-//W3C//DTD SVG 1.1//EN" "http://www.w3.org/Graphics/SVG/1.1/DTD/svg11.dtd">
<svg version="1.1" id="Layer_1" xmlns="http://www.w3.org/2000/svg" xmlns:xlink="http://www.w3.org/1999/xlink" x="0px" y="0px"
	 width="50px" height="50px" viewBox="0 0 50 50" enable-background="new 0 0 50 50" xml:space="preserve">

<circle fill="none" stroke="#000000" stroke-width="2" stroke-linecap="round" stroke-miterlimit="10" cx="25.5" cy="5.5" r="4.5"/>
<circle fill="none" stroke="#000000" stroke-width="2" stroke-linecap="round" stroke-miterlimit="10" cx="10" cy="40" r="9"/>
<circle fill="none" stroke="#000000" stroke-width="2" stroke-linecap="round" stroke-miterlimit="10" cx="40" cy="32" r="9"/>
<path fill="none" stroke="#000000" stroke-width="2" stroke-linecap="round" stroke-miterlimit="10" d="M37.338,15.985
	c-1.707-0.759-11.305-4.46-12.887-5.179C22.636,9.981,21.049,9,19.612,9c-1.413,0-2.919,1.729-4.839,3.915
	c-2.175,2.477-3.594,4.216-4.935,5.798c-0.515,0.607-2.151,2.349-1.837,4.648s2.806,3.406,4.999,4.121
	c2.23,0.727,6.852,2.252,6.852,2.252s3.785,7.906,4.36,9.008c0.575,1.102,1.437,2.587,3.019,1.965
	c1.581-0.623,1.343-2.288,0.862-3.642c-0.527-1.485-2.745-7.393-3.354-8.864c-0.744-1.796-0.938-1.954-2.971-3.019
	c-2.005-1.05-5.537-2.452-5.537-2.452s5.223-5.781,5.537-6.124c0.527-0.575,1.18-0.865,1.917-0.671
	c0.91,0.24,10.095,2.966,11.26,3.354c1.725,0.575,3.408,0.472,3.881-0.431C39.353,17.85,39.161,16.796,37.338,15.985z"/>
<path fill="none" stroke="#000000" stroke-width="2" stroke-linecap="round" stroke-miterlimit="10" d="M9.516,19.111
	c-2.789,2.363-7.008-2.101-4.996-5.267c2.793-4.396,8.288-5.964,13.284-4.493"/>
</svg>
