<?xml version="1.0" encoding="utf-8"?>
<!-- Generator: Adobe Illustrator 17.1.0, SVG Export Plug-In . SVG Version: 6.00 Build 0)  -->
<!DOCTYPE svg PUBLIC "-//W3C//DTD SVG 1.1//EN" "http://www.w3.org/Graphics/SVG/1.1/DTD/svg11.dtd">
<svg version="1.1" id="Layer_1" xmlns="http://www.w3.org/2000/svg" xmlns:xlink="http://www.w3.org/1999/xlink" x="0px" y="0px"
	 width="50px" height="50px" viewBox="0 0 50 50" style="enable-background:new 0 0 50 50;" xml:space="preserve">
<style type="text/css">
	.st0{fill:none;stroke:#000000;stroke-width:2;stroke-linecap:round;stroke-linejoin:round;stroke-miterlimit:10;}
</style>
<polyline class="st0" points="29,30 26.5,49 23.6,49 21,30 "/>
<polygon class="st0" points="21,30 29,30 32,21 18,21 "/>
<path class="st0" d="M23,21c-1.3,0-6-1.6-6-6.8C17,5.9,27,1,27,1c-0.4,2.1,0,4.2,1,5.4c0.5-0.5,1.2-1.2,2-1.4c-0.3,2.9,2,4.1,2,9.2
	c0,3-1.7,6.7-4.7,6.7"/>
<path d="M26.9,20.7c0,0,2.1-2.5,2.1-4.1c0-2.2-1.4-3.9-2-5.5c-1,1-1.2,4.4-1.2,4.4s-2.5-2.1-0.7-7.7c0,0-4.4,2.2-4.4,6.7
	c0,3.6,3.2,6.3,3.2,6.3H26.9z"/>
</svg>
