<?xml version="1.0" encoding="utf-8"?>
<!-- Generator: Adobe Illustrator 17.1.0, SVG Export Plug-In . SVG Version: 6.00 Build 0)  -->
<!DOCTYPE svg PUBLIC "-//W3C//DTD SVG 1.1//EN" "http://www.w3.org/Graphics/SVG/1.1/DTD/svg11.dtd">
<svg version="1.1" id="Layer_1" xmlns="http://www.w3.org/2000/svg" xmlns:xlink="http://www.w3.org/1999/xlink" x="0px" y="0px"
	 width="50px" height="50px" viewBox="0 0 50 50" style="enable-background:new 0 0 50 50;" xml:space="preserve">
<style type="text/css">
	.st0{fill:none;stroke:#000000;stroke-width:2;stroke-miterlimit:10;}
</style>
<path class="st0" d="M25,13c-5,0-9,4-9,9s4,9,9,9s9-4,9-9S30,13,25,13z"/>
<path class="st0" d="M40,13c-5,0-9,4-9,9s4,9,9,9s9-4,9-9S45,13,40,13z"/>
<path class="st0" d="M10,13c-5,0-9,4-9,9s4,9,9,9s9-4,9-9S15,13,10,13z"/>
<path class="st0" d="M18,26c-5,0-9,4-9,9s4,9,9,9s9-4,9-9S23,26,18,26z"/>
<path class="st0" d="M32,26c-5,0-9,4-9,9s4,9,9,9s9-4,9-9S37,26,32,26z"/>
</svg>
