<?xml version="1.0" encoding="utf-8"?>
<!-- Generator: Adobe Illustrator 17.1.0, SVG Export Plug-In . SVG Version: 6.00 Build 0)  -->
<!DOCTYPE svg PUBLIC "-//W3C//DTD SVG 1.1//EN" "http://www.w3.org/Graphics/SVG/1.1/DTD/svg11.dtd">
<svg version="1.1" id="Layer_1" xmlns="http://www.w3.org/2000/svg" xmlns:xlink="http://www.w3.org/1999/xlink" x="0px" y="0px"
	 width="50px" height="50px" viewBox="0 0 50 50" style="enable-background:new 0 0 50 50;" xml:space="preserve">
<style type="text/css">
	.st0{fill:none;stroke:#000000;stroke-width:2;stroke-miterlimit:10;}
	.st1{fill:none;stroke:#000000;stroke-width:2;stroke-linejoin:round;stroke-miterlimit:10;}
</style>
<path class="st0" d="M36,5.5C36,8,38,10,40.5,10C43,10,45,8,45,5.5C45,3,43,1,40.5,1C38,1,36,3,36,5.5z"/>
<circle cx="36" cy="48" r="2"/>
<circle cx="32" cy="48" r="2"/>
<circle cx="28" cy="48" r="2"/>
<path class="st0" d="M20,26.1L7.8,38.3c-1.1,1.1-1.1,2.8,0,3.9c0.5,0.5,1.2,0.8,2,0.8s1.4-0.3,2-0.8l12.7-12.7"/>
<path class="st1" d="M36.9,9.6C36.3,9,35.1,8,33.2,8C33.2,8,12,8,12,8c-1.1,0-2,0.9-2,2s0.9,2,2,2c0,0,17,0,17,0l-8.7,8.8
	c-1.2,1.2-1.4,3.1-0.5,4.5c0.2,0.4,0.4,0.7,0.8,1L29,33v9.3c0,1.4,1,2.6,2.4,2.7c1.6,0.1,2.6-1.4,2.6-3V31.6c0-1-0.5-2-1.2-2.6
	l-5.7-4.6l9.6-9.6C38.1,13.4,38.3,11.1,36.9,9.6z"/>
<circle cx="10" cy="47" r="2"/>
<circle cx="7.1" cy="44.3" r="2"/>
<circle cx="4.1" cy="41.6" r="2"/>
</svg>
