<?xml version="1.0" encoding="utf-8"?>
<!-- Generator: Adobe Illustrator 17.0.0, SVG Export Plug-In . SVG Version: 6.00 Build 0)  -->
<!DOCTYPE svg PUBLIC "-//W3C//DTD SVG 1.1//EN" "http://www.w3.org/Graphics/SVG/1.1/DTD/svg11.dtd">
<svg version="1.1" id="Layer_1" xmlns="http://www.w3.org/2000/svg" xmlns:xlink="http://www.w3.org/1999/xlink" x="0px" y="0px"
	 width="50px" height="50px" viewBox="0 0 50 50" enable-background="new 0 0 50 50" xml:space="preserve">

<circle fill="none" stroke="#000000" stroke-width="2" stroke-linecap="round" stroke-miterlimit="10" cx="28.5" cy="27.5" r="4.5"/>
<path fill="none" stroke="#000000" stroke-width="2" stroke-linecap="round" stroke-miterlimit="10" d="M40.436,37.034
	c0,0-3.082,1.114-7.514,1.114c-4.435,0-8.113-1.82-8.113-1.82s-1.543,1.812-1.455,3.139c7.318,2.108,10.676,9.021,10.676,9.021"/>
<path fill="none" stroke="#000000" stroke-width="2" stroke-linecap="round" stroke-miterlimit="10" d="M25.292,30.655
	c0,0,3.672,4.087,7.493,4.087c3.944,0,6.56-1.387,6.56-1.387"/>
<path fill="none" stroke="#000000" stroke-width="2" stroke-linecap="round" stroke-miterlimit="10" d="M35.991,18.93
	c-6.221,0.437-8.749,2.01-11.235,5.95"/>
<path fill="none" stroke="#000000" stroke-width="2" stroke-linecap="round" stroke-miterlimit="10" d="M10.13,39.698
	c0,0,0.765-8.696,7.877-13.478c1.993-9.575,14.588-10.99,14.588-10.99"/>
<path fill="none" stroke="#000000" stroke-width="2" stroke-linecap="round" stroke-miterlimit="10" d="M28.421,6.462l7.423-1.948
	c0,0,1.178,3.267,1.189,6.013c0.009,2.205-0.09,4.877-1.971,5.324c-1.771,0.421-3.636-1.604-4.659-3.738
	C29.235,9.68,28.421,6.462,28.421,6.462z"/>
<line fill="none" stroke="#000000" stroke-width="2" stroke-linecap="round" stroke-miterlimit="10" x1="35.359" y1="15.917" x2="40.529" y2="37.823"/>
<path fill="none" stroke="#000000" stroke-width="2" stroke-linecap="round" stroke-linejoin="round" stroke-miterlimit="10" d="
	M1,46.883C1,46.883,3.926,40,11,40c7.077,0,15.796,8.578,23.604,8.578c9.344,0,14.396-6.293,14.396-6.293"/>
<path fill="none" stroke="#000000" stroke-width="2" stroke-linecap="round" stroke-miterlimit="10" d="M39.647,47.704
	c-1.716-8.165,0.619-9.28,0.936-9.859c4.538,1.602,5.698,6.658,5.698,6.658"/>
</svg>
