<?xml version="1.0" encoding="utf-8"?>
<!-- Generator: Adobe Illustrator 17.0.0, SVG Export Plug-In . SVG Version: 6.00 Build 0)  -->
<!DOCTYPE svg PUBLIC "-//W3C//DTD SVG 1.1//EN" "http://www.w3.org/Graphics/SVG/1.1/DTD/svg11.dtd">
<svg version="1.1" id="Layer_1" xmlns="http://www.w3.org/2000/svg" xmlns:xlink="http://www.w3.org/1999/xlink" x="0px" y="0px"
	 width="50px" height="50px" viewBox="0 0 50 50" enable-background="new 0 0 50 50" xml:space="preserve">

<path fill="none" stroke="#000000" stroke-width="2" stroke-linecap="round" stroke-linejoin="round" stroke-miterlimit="10" d="
	M32.199,49c0,0,5.665-3.794,5.665-6.665c0-1.902-0.177-2.246-0.51-5.011c-0.333-2.763,0.427-4.404,1.126-6.286
	c0.695-1.884,1.498-5.181,1.138-8.991c0.098,0.498,0.243,7.046,3.327,9.411"/>
<path fill="none" stroke="#000000" stroke-width="2" stroke-linecap="round" stroke-linejoin="round" stroke-miterlimit="10" d="
	M48.858,27.729c0-6.042-0.755-7.121-2.409-9.565c-0.61-0.902,0.539-0.12,0.539-5.104c0-8.256-8.669-9.555-11.326-9.555
	C34.487,2.543,32.563,1,30.716,1"/>
<path fill="none" stroke="#000000" stroke-width="2" stroke-linecap="round" stroke-linejoin="round" stroke-miterlimit="10" d="
	M17.801,49c0,0-5.665-3.794-5.665-6.665c0-1.902,0.177-2.246,0.51-5.011c0.333-2.763-0.427-4.404-1.126-6.286
	c-0.695-1.884-1.498-5.181-1.138-8.991c-0.098,0.498-0.243,7.046-3.327,9.411"/>
<path fill="none" stroke="#000000" stroke-width="2" stroke-linecap="round" stroke-linejoin="round" stroke-miterlimit="10" d="
	M1.142,27.729c0-6.042,0.755-7.121,2.409-9.565c0.61-0.902-0.539-0.12-0.539-5.104c0-8.256,8.669-9.555,11.326-9.555
	C15.513,2.543,17.437,1,19.284,1"/>
<path fill="none" stroke="#000000" stroke-width="2" stroke-linecap="round" stroke-linejoin="round" stroke-miterlimit="10" d="
	M19.078,31.008c-0.543-0.041-1.077-0.18-1.247-0.25C17.019,30.424,16,29.971,16,28.467c0-1.503,0.9-2.434,2.642-2.434
	S21.768,26,22.651,26c1.36,0,2.362,0.606,2.362,1.895c0,0.717,0.054,1.907-0.351,2.336C24.3,30.617,23.34,30.904,22.651,31"/>
<path fill="none" stroke="#000000" stroke-width="2" stroke-linecap="round" stroke-linejoin="round" stroke-miterlimit="10" d="
	M19.562,36C18.672,35.922,17,34.971,17,33.467c0-1.503,0.483-2.459,2.078-2.459"/>
<path fill="none" stroke="#000000" stroke-width="2" stroke-linecap="round" stroke-linejoin="round" stroke-miterlimit="10" d="
	M22.651,31c1.36,0,2.362,0.606,2.362,1.895c0,0.717,0.042,1.896-0.351,2.336C24.134,35.822,23.467,36,22.651,36"/>
<path fill="none" stroke="#000000" stroke-width="2" stroke-linecap="round" stroke-linejoin="round" stroke-miterlimit="10" d="
	M22.651,36c1.36,0,2.362,0.606,2.362,1.895c0,0.717,0.042,4.896-0.351,5.336c-0.528,0.591-1.383,0.766-2.199,0.766
	c-1.619,0-4.463-4.026-4.463-5.53C18,36.964,18.641,36,19.562,36"/>
<path fill="none" stroke="#000000" stroke-width="2" stroke-linecap="round" stroke-linejoin="round" stroke-miterlimit="10" d="
	M30.922,31.008c0.543-0.041,1.077-0.18,1.247-0.25C32.981,30.424,34,29.971,34,28.467c0-1.503-0.9-2.434-2.642-2.434
	S28.232,26,27.349,26c-1.36,0-2.362,0.606-2.362,1.895c0,0.717-0.054,1.907,0.351,2.336C25.7,30.617,26.66,30.904,27.349,31"/>
<path fill="none" stroke="#000000" stroke-width="2" stroke-linecap="round" stroke-linejoin="round" stroke-miterlimit="10" d="
	M30.438,36C31.328,35.922,33,34.971,33,33.467c0-1.503-0.483-2.459-2.078-2.459"/>
<path fill="none" stroke="#000000" stroke-width="2" stroke-linecap="round" stroke-linejoin="round" stroke-miterlimit="10" d="
	M27.349,31c-1.36,0-2.362,0.606-2.362,1.895c0,0.717-0.042,1.896,0.351,2.336C25.866,35.822,26.533,36,27.349,36"/>
<path fill="none" stroke="#000000" stroke-width="2" stroke-linecap="round" stroke-linejoin="round" stroke-miterlimit="10" d="
	M27.349,36c-1.36,0-2.362,0.606-2.362,1.895c0,0.717-0.042,4.896,0.351,5.336c0.528,0.591,1.383,0.766,2.199,0.766
	c1.619,0,4.463-4.026,4.463-5.53C32,36.964,31.359,36,30.438,36"/>
<g>
	<g>
		<circle cx="29" cy="28" r="1"/>
	</g>
	<g>
		<circle cx="20" cy="28" r="1"/>
	</g>
	<g>
		<circle cx="29" cy="33" r="1"/>
	</g>
	<g>
		<circle cx="28" cy="38" r="1"/>
	</g>
	<g>
		<circle cx="28" cy="42" r="1"/>
	</g>
	<g>
		<circle cx="22" cy="42" r="1"/>
	</g>
	<g>
		<circle cx="22" cy="38" r="1"/>
	</g>
	<g>
		<circle cx="21" cy="33" r="1"/>
	</g>
</g>
</svg>
