<?xml version="1.0" encoding="utf-8"?>
<!-- Generator: Adobe Illustrator 17.0.2, SVG Export Plug-In . SVG Version: 6.00 Build 0)  -->
<!DOCTYPE svg PUBLIC "-//W3C//DTD SVG 1.1//EN" "http://www.w3.org/Graphics/SVG/1.1/DTD/svg11.dtd">
<svg version="1.1" id="Layer_1" xmlns="http://www.w3.org/2000/svg" xmlns:xlink="http://www.w3.org/1999/xlink" x="0px" y="0px"
	 width="50px" height="50px" viewBox="0 0 50 50" enable-background="new 0 0 50 50" xml:space="preserve">
<path fill="none" stroke="#000000" stroke-width="2" stroke-linecap="round" stroke-linejoin="round" stroke-miterlimit="10" d="
	M43,49c0-17.53-8.484-32-23-32c-8.308,0-14,8-14,19.077V49"/>
<circle cx="20" cy="26" r="3"/>
<g>
	
		<path fill="none" stroke="#000000" stroke-width="2.1496" stroke-linecap="round" stroke-linejoin="round" stroke-miterlimit="10" d="
		M32.744,30.993c-0.301-5.438,1.607-13.447,2.018-16.593C35.93,5.464,30.022,1,23.806,1C15.139,1,7.756,7.811,7,20.917
		C7,39.496,21.837,49,29.373,49C33.517,49,35,46.467,35,43.461C35,38.274,32.979,35.243,32.744,30.993z M24,5c1.657,0,3,1.343,3,3
		c0,1.657-1.343,3-3,3c-1.657,0-3-1.343-3-3C21,6.343,22.343,5,24,5z M28,45c-1.657,0-3-1.343-3-3c0-1.657,1.343-3,3-3
		c1.657,0,3,1.343,3,3C31,43.657,29.657,45,28,45z"/>
</g>
<circle fill="none" stroke="#000000" stroke-width="2" stroke-linecap="round" stroke-linejoin="round" stroke-miterlimit="10" cx="20" cy="26" r="9"/>
</svg>
