<?xml version="1.0" encoding="utf-8"?>
<!-- Generator: Adobe Illustrator 17.0.2, SVG Export Plug-In . SVG Version: 6.00 Build 0)  -->
<!DOCTYPE svg PUBLIC "-//W3C//DTD SVG 1.1//EN" "http://www.w3.org/Graphics/SVG/1.1/DTD/svg11.dtd">
<svg version="1.1" id="Layer_1" xmlns="http://www.w3.org/2000/svg" xmlns:xlink="http://www.w3.org/1999/xlink" x="0px" y="0px"
	 width="50px" height="50px" viewBox="0 0 50 50" enable-background="new 0 0 50 50" xml:space="preserve">
<path fill="none" stroke="#000000" stroke-width="2" stroke-linecap="round" stroke-linejoin="round" stroke-miterlimit="10" d="
	M22,5.005L34.923,5C42.153,5,46,8.702,46,16.077V28h-6c0-1.324,0-10.615,0-10.615C40,11.846,38.154,10,32.615,10H22V5.005z"/>
<path fill="none" stroke="#000000" stroke-width="2" stroke-linecap="round" stroke-linejoin="round" stroke-miterlimit="10" d="
	M22.865,10c-0.358,0.921-0.867,1.334-0.867,1.334"/>
<path fill="none" stroke="#000000" stroke-width="2" stroke-linecap="round" stroke-linejoin="round" stroke-miterlimit="10" d="
	M26.344,5.006C25.227,2.642,22.799,1,19.991,1H8.009C4.144,1,1,4.11,1,7.934c0,3.802,2.82,8.959,6.158,11.26
	c2.359,1.626,4.314,1.444,5.533,0.99c1.565-0.584,1.805-1.027,1.424-2.054c-0.124-0.333-0.303-0.57-0.515-0.914
	c-0.284-0.462-0.607-0.945-2.12-0.32c-0.127,0.053-1.072,0.543-2.215-0.248c-2.239-1.551-4.473-5.427-4.473-8.713
	c0-1.639,1.561-3.142,3.218-3.142h11.982c0.722,0,1.436,0.255,2.008,0.71"/>
<path fill="none" stroke="#000000" stroke-width="2" stroke-linecap="round" stroke-linejoin="round" stroke-miterlimit="10" d="
	M24.173,14.652c1.435-1.353,2.284-2.868,2.636-4.651"/>
<path fill="none" stroke="#000000" stroke-width="2" stroke-linecap="round" stroke-linejoin="round" stroke-miterlimit="10" d="
	M11.618,10.164c-1.89,0.518-1.759,0.886-1.372,2.478c0.261,1.075,0.37,1.885,2.478,1.372c0.044-0.011,4.419-1.066,8.062,1.713
	c1.007,0.768,2.311,0.493,2.987-0.381c0.205-0.264,0.407-0.591,0.462-0.899c0.127-0.71-0.28-1.738-0.891-2.21
	C18.13,8.206,11.877,10.093,11.618,10.164z"/>
<path fill="none" stroke="#000000" stroke-width="2" stroke-linecap="round" stroke-linejoin="round" stroke-miterlimit="10" d="
	M10.977,18.063c-0.061-0.346-0.204-0.977-0.204-0.977"/>
<circle cx="21.5" cy="13.5" r="0.812"/>
<path fill="none" stroke="#000000" stroke-width="2" stroke-linecap="round" stroke-linejoin="round" stroke-miterlimit="10" d="
	M40,27.135c-0.921,0.358-1.334,0.867-1.334,0.867"/>
<path fill="none" stroke="#000000" stroke-width="2" stroke-linecap="round" stroke-linejoin="round" stroke-miterlimit="10" d="
	M46.054,24.278C47.898,25.539,49,27.594,49,30.009v11.982C49,45.856,45.89,49,42.066,49c-3.802,0-8.959-2.82-11.26-6.158
	c-1.626-2.359-1.444-4.314-0.99-5.533c0.584-1.565,1.027-1.805,2.054-1.424c0.333,0.124,0.57,0.303,0.914,0.515
	c0.462,0.284,0.945,0.607,0.32,2.12c-0.053,0.127-0.543,1.072,0.248,2.215c1.551,2.239,5.427,4.473,8.713,4.473
	c1.639,0,3.142-1.561,3.142-3.218V30.009c0-0.722-0.255-1.436-0.71-2.008"/>
<path fill="none" stroke="#000000" stroke-width="2" stroke-linecap="round" stroke-linejoin="round" stroke-miterlimit="10" d="
	M35.348,25.827c1.353-1.435,2.868-2.285,4.652-2.636"/>
<path fill="none" stroke="#000000" stroke-width="2" stroke-linecap="round" stroke-linejoin="round" stroke-miterlimit="10" d="
	M37.764,26.657c-0.472-0.61-1.5-1.017-2.21-0.891c-0.308,0.055-0.635,0.257-0.899,0.462c-0.875,0.676-1.149,1.98-0.381,2.987
	c2.779,3.642,1.724,8.017,1.713,8.062c-0.513,2.107,0.297,2.216,1.372,2.478c1.592,0.387,1.959,0.518,2.478-1.372
	C39.907,38.123,41.794,31.87,37.764,26.657z"/>
<path fill="none" stroke="#000000" stroke-width="2" stroke-linecap="round" stroke-linejoin="round" stroke-miterlimit="10" d="
	M31.937,39.023c0.346,0.061,0.977,0.204,0.977,0.204"/>
<circle cx="36.5" cy="28.5" r="0.812"/>
</svg>
