<?xml version="1.0" encoding="utf-8"?>
<!-- Generator: Adobe Illustrator 17.0.0, SVG Export Plug-In . SVG Version: 6.00 Build 0)  -->
<!DOCTYPE svg PUBLIC "-//W3C//DTD SVG 1.1//EN" "http://www.w3.org/Graphics/SVG/1.1/DTD/svg11.dtd">
<svg version="1.1" id="Layer_1" xmlns="http://www.w3.org/2000/svg" xmlns:xlink="http://www.w3.org/1999/xlink" x="0px" y="0px"
	 width="50px" height="50px" viewBox="0 0 50 50" enable-background="new 0 0 50 50" xml:space="preserve">

<circle fill="none" stroke="#000000" stroke-width="2" stroke-linecap="round" stroke-miterlimit="10" cx="37.5" cy="10.5" r="4.5"/>
<circle fill="none" stroke="#000000" stroke-width="2" stroke-linecap="round" stroke-miterlimit="10" cx="40" cy="40" r="9"/>
<circle fill="none" stroke="#000000" stroke-width="2" stroke-linecap="round" stroke-miterlimit="10" cx="10" cy="40" r="9"/>
<path fill="none" stroke="#000000" stroke-width="2" stroke-linecap="round" stroke-miterlimit="10" d="M44,21h-8
	c0,0-4.082-5.896-4.938-7.188C30.172,12.469,28.923,12,27.538,12c-1.413,0-3.376,1.369-5.54,2.966
	c-2.652,1.957-4.734,3.587-6.007,4.625C15.376,20.094,14,21.519,14,23.84s2.601,3.743,4.504,4.929
	c1.99,1.24,5.082,3.183,5.082,3.183l-1.222,9.714c0,0-0.015,2.092,1.817,2.337s2.394-1.702,2.394-1.702s1.633-8.827,1.885-10.4
	c0.26-1.622,0.648-2.7-1.221-4.031c-1.844-1.313-5.067-3.053-5.067-3.053s6.143-4.752,6.548-4.98
	c0.461-0.26,0.836-0.721,1.298-0.115c0.474,0.622,3.635,4.788,3.635,4.788S34.144,25,35.356,25C36.944,25,44,25,44,25
	c1.02,0,2-0.98,2-2C46,21.98,45.02,21,44,21z"/>
</svg>
