<?xml version="1.0" encoding="utf-8"?>
<!-- Generator: Adobe Illustrator 17.0.0, SVG Export Plug-In . SVG Version: 6.00 Build 0)  -->
<!DOCTYPE svg PUBLIC "-//W3C//DTD SVG 1.1//EN" "http://www.w3.org/Graphics/SVG/1.1/DTD/svg11.dtd">
<svg version="1.1" id="Layer_1" xmlns="http://www.w3.org/2000/svg" xmlns:xlink="http://www.w3.org/1999/xlink" x="0px" y="0px"
	 width="50px" height="50px" viewBox="0 0 50 50" enable-background="new 0 0 50 50" xml:space="preserve">
<path fill="none" stroke="#000000" stroke-width="2" stroke-linecap="round" stroke-linejoin="round" stroke-miterlimit="10" d="
	M33.213,30.717c2.817-1.905,8.087-4.834,10.841-7.588c5.778-5.778,6.615-14.309,1.871-19.053S32.649,0.169,26.871,5.947
	c-2.664,2.664-5.831,8.072-7.634,10.794"/>
<path fill="none" stroke="#000000" stroke-width="2" stroke-linecap="round" stroke-linejoin="round" stroke-miterlimit="10" d="
	M26.639,27.079c1.22-0.92,8.969-7.454,10.962-9.387c2.705-2.622,3.187-5.18,1.645-6.723c-1.543-1.543-4.659-1.248-6.671,1.554
	c-1.239,1.725-8.176,10.014-8.998,11.3"/>
<path fill="none" stroke="#000000" stroke-width="2" stroke-linecap="round" stroke-linejoin="round" stroke-miterlimit="10" d="
	M29.384,28.739c3.944-2.83,10.699-7.336,12.31-8.947c3.862-3.862,4.422-9.564,1.25-12.736s-8.873-2.612-12.736,1.25
	c-1.59,1.59-6.186,7.668-8.866,12.072"/>
<path fill="none" stroke="#000000" stroke-width="2" stroke-linecap="round" stroke-linejoin="round" stroke-miterlimit="10" d="
	M31.118,36.065c-1.926,1.926-7.334-0.359-12.079-5.104s-7.03-10.153-5.104-12.079"/>
<path fill="none" stroke="#000000" stroke-width="2" stroke-linecap="round" stroke-linejoin="round" stroke-miterlimit="10" d="
	M34.011,33.172c-1.926,1.926-7.334-0.359-12.079-5.104s-7.03-10.153-5.104-12.079"/>
<path fill="none" stroke="#000000" stroke-width="2" stroke-linecap="round" stroke-linejoin="round" stroke-miterlimit="10" d="
	M36.813,30.37c-1.926,1.926-7.334-0.359-12.079-5.104s-7.03-10.153-5.104-12.079"/>
<path fill="none" stroke="#000000" stroke-width="2" stroke-linecap="round" stroke-linejoin="round" stroke-miterlimit="10" d="
	M37.106,28.483C41.509,25.484,49,32.528,49,41"/>

<path fill="none" stroke="#000000" stroke-width="2" stroke-linecap="round" stroke-linejoin="round" stroke-miterlimit="10" d="
	M13.046,21.655c-1.976,1.219-5.181,3.297-7.099,5.216c-5.778,5.778-6.615,14.309-1.871,19.053s13.275,3.907,19.053-1.871
	c1.867-1.867,3.796-5.357,5.042-7.337"/>
<path fill="none" stroke="#000000" stroke-width="2" stroke-linecap="round" stroke-linejoin="round" stroke-miterlimit="10" d="
	M16.62,28.675c-1.16,0.999-3.575,3.006-4.221,3.632c-2.705,2.622-3.187,5.18-1.645,6.723c1.543,1.543,4.659,1.248,6.671-1.554
	c0.428-0.596,2.582-3.043,3.662-4.334"/>
<path fill="none" stroke="#000000" stroke-width="2" stroke-linecap="round" stroke-linejoin="round" stroke-miterlimit="10" d="
	M14.514,25.484c-2.095,1.519-5.322,3.839-6.207,4.724c-3.862,3.862-4.422,9.564-1.25,12.736s8.873,2.612,12.736-1.25
	c0.875-0.875,3.148-4.094,4.678-6.19"/>
</svg>
