<?xml version="1.0" encoding="utf-8"?>
<!-- Generator: Adobe Illustrator 17.0.0, SVG Export Plug-In . SVG Version: 6.00 Build 0)  -->
<!DOCTYPE svg PUBLIC "-//W3C//DTD SVG 1.1//EN" "http://www.w3.org/Graphics/SVG/1.1/DTD/svg11.dtd">
<svg version="1.1" id="Layer_1" xmlns="http://www.w3.org/2000/svg" xmlns:xlink="http://www.w3.org/1999/xlink" x="0px" y="0px"
	 width="50px" height="50px" viewBox="0 0 50 50" enable-background="new 0 0 50 50" xml:space="preserve">
<g>
	<circle cx="44" cy="11" r="1"/>
	<circle cx="38" cy="11" r="1"/>
	<circle cx="38" cy="5" r="1"/>
	<circle cx="35" cy="14" r="1"/>
	<circle cx="41" cy="8" r="1"/>
	<circle cx="35" cy="8" r="1"/>
	<circle cx="44" cy="17" r="1"/>
	<circle cx="41" cy="14" r="1"/>
	<circle cx="38" cy="17" r="1"/>
</g>

<path fill="none" stroke="#000000" stroke-width="2" stroke-linecap="round" stroke-linejoin="round" stroke-miterlimit="10" d="
	M32.199,49c0,0,5.665-3.794,5.665-6.665c0-1.902-0.177-2.246-0.51-5.011c-0.333-2.763,0.427-4.404,1.126-6.286
	c0.695-1.884,1.498-5.181,1.138-8.991c0.098,0.498,0.243,7.046,3.327,9.411"/>
<path fill="none" stroke="#000000" stroke-width="2" stroke-linecap="round" stroke-linejoin="round" stroke-miterlimit="10" d="
	M48.858,27.729c0-6.042-0.755-7.121-2.409-9.565c-0.61-0.902,0.539-0.12,0.539-5.104c0-8.256-8.669-9.555-11.326-9.555
	C34.487,2.543,32.563,1,30.716,1"/>
<path fill="none" stroke="#000000" stroke-width="2" stroke-linecap="round" stroke-linejoin="round" stroke-miterlimit="10" d="
	M17.801,49c0,0-5.665-3.794-5.665-6.665c0-1.902,0.177-2.246,0.51-5.011c0.333-2.763-0.427-4.404-1.126-6.286
	c-0.695-1.884-1.498-5.181-1.138-8.991c-0.098,0.498-0.243,7.046-3.327,9.411"/>
<path fill="none" stroke="#000000" stroke-width="2" stroke-linecap="round" stroke-linejoin="round" stroke-miterlimit="10" d="
	M1.142,27.729c0-6.042,0.755-7.121,2.409-9.565c0.61-0.902-0.539-0.12-0.539-5.104c0-8.256,8.669-9.555,11.326-9.555
	C15.513,2.543,17.437,1,19.284,1"/>
<path fill="none" stroke="#000000" stroke-width="2" stroke-linecap="round" stroke-linejoin="round" stroke-miterlimit="10" d="
	M36.143,3.571c-2.839,0.373-4.394,4.082-4.19,7.429c0,0,0.754,5.487,2.6,6.715c1.843,1.228,10.143,1.922,11.7-0.357"/>
<g>
	<circle cx="6" cy="11" r="1"/>
	<circle cx="12" cy="11" r="1"/>
	<circle cx="12" cy="5" r="1"/>
	<circle cx="15" cy="14" r="1"/>
	<circle cx="9" cy="8" r="1"/>
	<circle cx="15" cy="8" r="1"/>
	<circle cx="6" cy="17" r="1"/>
	<circle cx="9" cy="14" r="1"/>
	<circle cx="12" cy="17" r="1"/>
</g>
<path fill="none" stroke="#000000" stroke-width="2" stroke-linecap="round" stroke-linejoin="round" stroke-miterlimit="10" d="
	M13.857,3.571c2.839,0.373,4.394,4.082,4.19,7.429c0,0-0.754,5.487-2.6,6.715c-1.843,1.228-10.143,1.922-11.7-0.357"/>
</svg>
