<?xml version="1.0" encoding="utf-8"?>
<!-- Generator: Adobe Illustrator 17.0.2, SVG Export Plug-In . SVG Version: 6.00 Build 0)  -->
<!DOCTYPE svg PUBLIC "-//W3C//DTD SVG 1.1//EN" "http://www.w3.org/Graphics/SVG/1.1/DTD/svg11.dtd">
<svg version="1.1" id="Layer_1" xmlns="http://www.w3.org/2000/svg" xmlns:xlink="http://www.w3.org/1999/xlink" x="0px" y="0px"
	 width="50px" height="50px" viewBox="0 0 50 50" enable-background="new 0 0 50 50" xml:space="preserve">
<path fill="none" stroke="#000000" stroke-width="2" stroke-linecap="round" stroke-linejoin="round" stroke-miterlimit="10" d="
	M11.03,46c0,0,4.054,3,8.829,3C32.206,49,28.436,39,33,39c2.772,0,3.547,2,7,2c3.328,0,6-2.686,6-6c0-3.179-2.474-5.773-5.6-5.98
	c0.024-0.013,0.039-0.02,0.039-0.02H24.671"/>
<path fill="none" stroke="#000000" stroke-width="2" stroke-linecap="round" stroke-linejoin="round" stroke-miterlimit="10" d="
	M23,23.358c0-3.718,0-4.129,0-9.872S19.505,5.527,17.432,3.29C16.525,2.311,14.433,1,13.492,1C11.862,1,12,1.668,12,4.519
	c0,2.016,0,5.456,0,12.679c0,4.85-1.777,7.822-2.965,9.065C7.847,27.506,6,28.234,6,30.407c0,2.176,0,11.897,0,12.895
	C6,44.824,7.545,46,9.244,46c1.157,0,8.82,0,13.069,0C23.626,46,25,45.537,25,43.605c0-3.462,0-9.224,0-13.048
	C25,28.643,23,27.076,23,23.358z"/>
<g>
	<circle cx="12" cy="40" r="2"/>
</g>
<circle fill="none" stroke="#000000" stroke-width="2" stroke-linecap="round" stroke-linejoin="round" stroke-miterlimit="10" cx="40" cy="35" r="3"/>
</svg>
