<?xml version="1.0" encoding="utf-8"?>
<!-- Generator: Adobe Illustrator 16.0.0, SVG Export Plug-In . SVG Version: 6.00 Build 0)  -->
<!DOCTYPE svg PUBLIC "-//W3C//DTD SVG 1.1//EN" "http://www.w3.org/Graphics/SVG/1.1/DTD/svg11.dtd">
<svg version="1.1" id="Layer_1" xmlns="http://www.w3.org/2000/svg" xmlns:xlink="http://www.w3.org/1999/xlink" x="0px" y="0px"
	 width="50px" height="50px" viewBox="0 0 50 50" enable-background="new 0 0 50 50" xml:space="preserve">

<path fill="none" stroke="#000000" stroke-width="2" stroke-linecap="round" stroke-linejoin="round" stroke-miterlimit="10" d="
	M39,5.498C39,7.983,41.014,10,43.498,10C45.985,10,48,7.983,48,5.498C48,3.016,45.985,1,43.498,1C41.014,1,39,3.016,39,5.498z"/>
<path fill="none" stroke="#000000" stroke-width="2" stroke-linecap="round" stroke-linejoin="round" stroke-miterlimit="10" d="
	M20.46,37.309c0,0,5.094-6.355,6-7.563c0.905-1.208,0.617-2.205-0.612-3.128c-1.19-0.893-3.213-2.066-5.002-3.308
	c-1.77-1.23-4.539-5-1.615-9c0,0,6.204-9.425,14.145-8.184C35.264,6.42,38,7.892,38,10.708c0,2.816-2.312,8.229-2.312,8.229
	s5.653,3.288,6.828,4.234c2.46,1.979,1.776,3.766-1.516,2.375c-5.344-2.255-8.656-3.969-9.057-5.179
	c-0.46-1.39-0.047-4.267-0.047-4.267l-5.103,3.528c2.075,1.47,3.903,2.777,4.433,3.193c1.41,1.107,4.766,4.038,1.232,8.383
	c-3.46,4.254-7.167,8.42-7.167,8.42"/>
<path fill="none" stroke="#000000" stroke-width="2" stroke-linecap="round" stroke-linejoin="round" stroke-miterlimit="10" d="
	M2.299,27.932l37.496,20.424c0,0,4.727,2.111,7.243-1.309"/>
<line fill="none" stroke="#000000" stroke-width="2" stroke-linecap="round" stroke-linejoin="round" stroke-miterlimit="10" x1="30.747" y1="18.138" x2="10.588" y2="6.333"/>
</svg>
