<?xml version="1.0" encoding="utf-8"?>
<!-- Generator: Adobe Illustrator 17.0.2, SVG Export Plug-In . SVG Version: 6.00 Build 0)  -->
<!DOCTYPE svg PUBLIC "-//W3C//DTD SVG 1.1//EN" "http://www.w3.org/Graphics/SVG/1.1/DTD/svg11.dtd">
<svg version="1.1" id="Layer_1" xmlns="http://www.w3.org/2000/svg" xmlns:xlink="http://www.w3.org/1999/xlink" x="0px" y="0px"
	 width="50px" height="50px" viewBox="0 0 50 50" enable-background="new 0 0 50 50" xml:space="preserve">
<path fill="none" stroke="#000000" stroke-width="2" stroke-linecap="round" stroke-linejoin="round" stroke-miterlimit="10" d="
	M18.177,14.766l3.411-3.411c2.826-2.826,7.408-2.826,10.234,0l6.823,6.823c2.826,2.826,2.826,7.408,0,10.234l-3.411,3.411
	L18.177,14.766z"/>
<path fill="none" stroke="#000000" stroke-width="2" stroke-linecap="round" stroke-linejoin="round" stroke-miterlimit="10" d="
	M40.753,23.526C45.519,22.121,49,17.72,49,12.5C49,6.149,43.851,1,37.5,1c-5.22,0-9.621,3.481-11.026,8.247"/>
<path fill="none" stroke="#000000" stroke-width="2" stroke-linecap="round" stroke-linejoin="round" stroke-miterlimit="10" d="
	M31.823,35.234l-3.411,3.411c-2.826,2.826-7.408,2.826-10.234,0l-6.823-6.823c-2.826-2.826-2.826-7.408,0-10.234l3.411-3.411
	L31.823,35.234z"/>
<path fill="none" stroke="#000000" stroke-width="2" stroke-linecap="round" stroke-linejoin="round" stroke-miterlimit="10" d="
	M9.247,26.474C4.481,27.879,1,32.28,1,37.5C1,43.851,6.149,49,12.5,49c5.22,0,9.621-3.481,11.026-8.247"/>
</svg>
