<?xml version="1.0" encoding="utf-8"?>
<!-- Generator: Adobe Illustrator 16.0.0, SVG Export Plug-In . SVG Version: 6.00 Build 0)  -->
<!DOCTYPE svg PUBLIC "-//W3C//DTD SVG 1.1//EN" "http://www.w3.org/Graphics/SVG/1.1/DTD/svg11.dtd">
<svg version="1.1" id="Layer_1" xmlns="http://www.w3.org/2000/svg" xmlns:xlink="http://www.w3.org/1999/xlink" x="0px" y="0px"
	 width="50px" height="50px" viewBox="0 0 50 50" enable-background="new 0 0 50 50" xml:space="preserve">

<path fill="none" stroke="#000000" stroke-width="2" stroke-linecap="round" stroke-linejoin="round" stroke-miterlimit="10" d="
	M13.234,38.89c0.584,0.584,0.584,1.54,0,2.124l-7.319,7.315c-0.583,0.585-2.132,0.311-3.343-0.901
	c-1.212-1.211-1.487-2.76-0.903-3.346l7.317-7.316c0.585-0.584,1.538-0.584,2.124,0L13.234,38.89z"/>
<g>
	<path fill="none" stroke="#000000" stroke-width="2" stroke-linecap="round" stroke-linejoin="round" stroke-miterlimit="10" d="
		M10.606,8.676c1.626,0.346,3.605,1.205,5.559,3.158c1.957,1.956,2.816,3.939,3.162,5.563 M25.512,11.351
		c-1.644-0.326-3.674-1.179-5.678-3.184c-2.058-2.057-2.901-4.141-3.21-5.808"/>
</g>
<path fill="none" stroke="#000000" stroke-width="2" stroke-linecap="round" stroke-linejoin="round" stroke-miterlimit="10" d="
	M15.059,24.667c0.2,2.29-0.551,8.753-2.917,11.119l-0.777,0.777"/>
<path fill="none" stroke="#000000" stroke-width="2" stroke-linecap="round" stroke-linejoin="round" stroke-miterlimit="10" d="
	M18.945,32.965c-0.802,0.117-1.616,0.279-2.408,0.498c0.234-0.846,0.402-1.718,0.521-2.572"/>
<path fill="none" stroke="#000000" stroke-width="2" stroke-linecap="round" stroke-linejoin="round" stroke-miterlimit="10" d="
	M13.436,38.638l0.777-0.779c2.369-2.367,8.831-3.087,11.121-2.888"/>
<circle fill="none" stroke="#000000" stroke-width="2" stroke-linecap="round" stroke-linejoin="round" stroke-miterlimit="10" cx="18" cy="10" r="8"/>
<path fill="none" stroke="#000000" stroke-width="2" stroke-linecap="round" stroke-linejoin="round" stroke-miterlimit="10" d="
	M15.344,20.539c-0.908,4.41,0.168,8.362,2.961,11.156c5.291,5.29,14.736,4.42,23.578-4.422c8.841-8.841,8.711-17.286,3.421-22.577
	C40.977,0.37,34.537-0.505,27.497,4.158"/>
<path fill="none" stroke="#000000" stroke-width="2" stroke-linecap="round" stroke-linejoin="round" stroke-miterlimit="10" d="
	M28.607,8.495c5.418-4.077,10.436-4.164,13.748-0.851c3.904,3.904,3.086,10.176-3.421,16.682
	c-6.506,6.508-13.777,8.326-17.682,4.422c-1.897-1.898-2.443-4.591-1.757-7.604"/>
</svg>
