<?xml version="1.0" encoding="utf-8"?>
<!-- Generator: Adobe Illustrator 17.0.0, SVG Export Plug-In . SVG Version: 6.00 Build 0)  -->
<!DOCTYPE svg PUBLIC "-//W3C//DTD SVG 1.1//EN" "http://www.w3.org/Graphics/SVG/1.1/DTD/svg11.dtd">
<svg version="1.1" id="Layer_1" xmlns="http://www.w3.org/2000/svg" xmlns:xlink="http://www.w3.org/1999/xlink" x="0px" y="0px"
	 width="50px" height="50px" viewBox="0 0 50 50" enable-background="new 0 0 50 50" xml:space="preserve">

<path fill="none" stroke="#000000" stroke-width="2" stroke-linecap="round" stroke-linejoin="round" stroke-miterlimit="10" d="
	M43,10.5c0,2.485-2.015,4.5-4.5,4.5c-5.439,0-5.43-6-10.5-6c2.375-1.318,7.028-3,10.5-3C40.985,6,43,8.015,43,10.5z"/>
<path fill="none" stroke="#000000" stroke-width="2" stroke-linecap="round" stroke-miterlimit="10" d="M44.094,23.125
	c-1.359-0.344-7.219-1.625-7.219-1.625s-4.957-6.396-5.812-7.688C30.172,12.469,28.923,12,27.538,12
	c-1.413,0-3.376,1.369-5.54,2.966c-2.652,1.957-4.734,3.587-6.007,4.625C15.376,20.094,14,21.519,14,23.84s2.601,3.743,4.504,4.929
	c1.99,1.24,5.082,3.183,5.082,3.183l-1.222,9.714c0,0-0.015,2.092,1.817,2.337s2.394-1.702,2.394-1.702s1.633-8.827,1.885-10.4
	c0.26-1.622,0.648-2.7-1.221-4.031c-1.844-1.313-5.067-3.053-5.067-3.053s6.143-4.752,6.548-4.98
	c0.461-0.26,0.836-0.721,1.298-0.115c0.474,0.622,2.84,3.779,3.09,4.091s0.604,0.743,1.781,1.031c1.597,0.391,7.576,1.806,8.422,2
	c1.297,0.297,2.289-0.168,2.594-1.141C46.234,24.656,45.453,23.469,44.094,23.125z"/>
<circle fill="none" stroke="#000000" stroke-width="2" stroke-linecap="round" stroke-miterlimit="10" cx="40" cy="40" r="9"/>
<circle fill="none" stroke="#000000" stroke-width="2" stroke-linecap="round" stroke-miterlimit="10" cx="10" cy="40" r="9"/>
</svg>
