<?xml version="1.0" encoding="utf-8"?>
<!-- Generator: Adobe Illustrator 16.0.0, SVG Export Plug-In . SVG Version: 6.00 Build 0)  -->
<!DOCTYPE svg PUBLIC "-//W3C//DTD SVG 1.1//EN" "http://www.w3.org/Graphics/SVG/1.1/DTD/svg11.dtd">
<svg version="1.1" id="Layer_1" xmlns="http://www.w3.org/2000/svg" xmlns:xlink="http://www.w3.org/1999/xlink" x="0px" y="0px"
	 width="50px" height="50px" viewBox="0 0 50 50" enable-background="new 0 0 50 50" xml:space="preserve">

<path fill="none" stroke="#000000" stroke-width="2" stroke-linecap="round" stroke-linejoin="round" stroke-miterlimit="10" d="
	M24,5.499c0,2.487,2.014,4.502,4.499,4.502c2.487,0,4.501-2.016,4.501-4.502C33,3.016,30.986,1,28.499,1C26.014,1,24,3.016,24,5.499
	z"/>
<path fill="none" stroke="#000000" stroke-width="2" stroke-linecap="round" stroke-linejoin="round" stroke-miterlimit="10" d="
	M19,29.584l-1.99,6.864c0,0-2.164,5.253-3.549,8.063c-1.048,2.129-1.056,3.623,0.007,4.197c1.306,0.705,2.354,0.058,3.908-2.367
	c2.607-4.066,3.507-7.503,4.009-8.49l1.865-4.602"/>
<path fill="none" stroke="#000000" stroke-width="2" stroke-linecap="round" stroke-linejoin="round" stroke-miterlimit="10" d="
	M31.627,33.239l-5.981-5.942c0,0,2.46-11.1,2.694-12.168s-0.022-1.563-1.126-1.977l-3.814-1.076
	c-1.022-0.312-1.884,0.356-2.047,1.467l-2.757,9.88c-0.48,2.319-0.519,5.036,1.562,6.94c0.027,0.035,0.051,0.07,0.086,0.106L28,37
	l-0.889,8.73c-0.2,2.435,0.253,3.136,1.566,3.234c1.767,0.134,2.14-2.438,2.268-3.084c0,0,1.024-8.193,1.216-9.324
	C32.351,35.426,32.464,34.094,31.627,33.239z"/>
<path fill="none" stroke="#000000" stroke-width="2" stroke-linecap="round" stroke-linejoin="round" stroke-miterlimit="10" d="
	M27.916,18.917l4.529,3.169c0.588,0.422,1.49,0.644,2.151,0.359c0,0,4.289-2.605,5.439-3.355c1.206-0.79,2.466-1.828,2.001-2.699
	c-0.662-1.251-1.865-0.671-3.036-0.104l-4.597,2.162l-6.411-4.959"/>
<line fill="none" stroke="#000000" stroke-width="2" stroke-linecap="round" stroke-linejoin="round" stroke-miterlimit="10" x1="39" y1="20.013" x2="39" y2="49"/>
<line fill="none" stroke="#000000" stroke-width="2" stroke-linecap="round" stroke-linejoin="round" stroke-miterlimit="10" x1="39" y1="12.299" x2="39" y2="15.825"/>
<path fill="none" stroke="#000000" stroke-width="2" stroke-linecap="round" stroke-linejoin="round" stroke-miterlimit="10" d="
	M18.583,23.519c0,0-0.783,1.481-3.583,1.481c-2.143,0-4-1.584-4-4c0-7,6.836-10.049,8-10c1.061,0.045,2.422,0.995,2.366,2.467"/>
</svg>
