<?xml version="1.0" encoding="utf-8"?>
<!-- Generator: Adobe Illustrator 17.0.0, SVG Export Plug-In . SVG Version: 6.00 Build 0)  -->
<!DOCTYPE svg PUBLIC "-//W3C//DTD SVG 1.1//EN" "http://www.w3.org/Graphics/SVG/1.1/DTD/svg11.dtd">
<svg version="1.1" id="Layer_1" xmlns="http://www.w3.org/2000/svg" xmlns:xlink="http://www.w3.org/1999/xlink" x="0px" y="0px"
	 width="50px" height="50px" viewBox="0 0 50 50" enable-background="new 0 0 50 50" xml:space="preserve">


<circle fill="none" stroke="#000000" stroke-width="2" stroke-linecap="round" stroke-linejoin="round" stroke-miterlimit="10" cx="27.5" cy="5.5" r="4.5"/>
<path fill="none" stroke="#000000" stroke-width="2" stroke-linecap="round" stroke-linejoin="round" stroke-miterlimit="10" d="
	M28.723,14.935C28.341,13.47,26.946,12,25.474,12c-0.544,0-1.675,0-2.263,0c-1.189,0-1.624,0.434-2.35,0.84l-6.124,5.205
	c-0.543,0.311-0.884,0.769-1.095,1.423l-1.576,8.352c-0.188,1.405,0.551,1.999,1.392,2.172c0.681,0.141,1.712-0.203,1.915-1.188
	c0.168-0.812,1.671-7.557,1.671-7.557l3.998-3.065c-0.658,3.055-1.328,6.408-1.55,7.542c-0.382,1.947,0.593,3.429,1.357,4.58
	c0.7,1.056,9.746,15.293,10.939,16.842c1.193,1.549,2.278,2.316,3.945,1.39c1.392-0.772,1.16-2.549,0.387-3.862
	c-0.774-1.313-9.902-16.144-9.902-16.144s2.233-9.974,2.434-10.893S29.022,16.078,28.723,14.935z"/>
<path fill="none" stroke="#000000" stroke-width="2" stroke-linecap="round" stroke-linejoin="round" stroke-miterlimit="10" d="
	M19.531,27.812L16.78,37.8c0,0-3.856,5.574-4.929,7.135c-0.805,1.171-1.41,2.601-0.031,3.642c1.547,1.167,2.784-0.353,3.586-1.255
	c0.736-0.826,3.721-4.996,4.567-6.06c0.563-0.708,0.875-1.307,1.114-1.902c0.16-0.398,2.069-5.391,2.069-5.391"/>
<path fill="none" stroke="#000000" stroke-width="2" stroke-linecap="round" stroke-linejoin="round" stroke-miterlimit="10" d="
	M27.753,21.926c0,0,1.06,1.506,1.607,2.356c0.261,0.406,0.531,0.561,1.247,0.956c0.841,0.463,4.945,1.796,6.186,2.351
	c1.101,0.492,2.471,0.681,3.023-0.294c0.552-0.974-0.152-2.136-0.977-2.514c-0.901-0.412-6.896-2.857-6.896-2.857
	s-2.2-4.723-3.293-7.195"/>
</svg>
