<?xml version="1.0" encoding="utf-8"?>
<!-- Generator: Adobe Illustrator 17.0.0, SVG Export Plug-In . SVG Version: 6.00 Build 0)  -->
<!DOCTYPE svg PUBLIC "-//W3C//DTD SVG 1.1//EN" "http://www.w3.org/Graphics/SVG/1.1/DTD/svg11.dtd">
<svg version="1.1" id="Layer_1" xmlns="http://www.w3.org/2000/svg" xmlns:xlink="http://www.w3.org/1999/xlink" x="0px" y="0px"
	 width="50px" height="50px" viewBox="0 0 50 50" enable-background="new 0 0 50 50" xml:space="preserve">

<circle fill="none" stroke="#000000" stroke-width="2.1667" stroke-linecap="round" stroke-linejoin="round" stroke-miterlimit="10" cx="25" cy="19" r="4"/>
<path fill="none" stroke="#000000" stroke-width="2" stroke-linecap="round" stroke-linejoin="round" stroke-miterlimit="10" d="
	M36.666,8.002c1.387,0.135,2.617,0.283,3.683,0.43"/>
<path fill="none" stroke="#000000" stroke-width="2" stroke-linecap="round" stroke-linejoin="round" stroke-miterlimit="10" d="
	M17.128,7.701c2.329-0.145,4.96-0.239,7.872-0.239c2.801,0,5.341,0.087,7.603,0.223"/>
<path fill="none" stroke="#000000" stroke-width="2" stroke-linecap="round" stroke-linejoin="round" stroke-miterlimit="10" d="
	M9.736,8.42c1.114-0.152,2.404-0.305,3.862-0.443"/>
<path fill="none" stroke="#000000" stroke-width="2" stroke-linecap="round" stroke-linejoin="round" stroke-miterlimit="10" d="
	M38.743,32.863c-0.945-0.387-7.69-2.835-7.69-2.835s0.55-2.698,0.637-4.262c1.362-2.718,3.432-5.823,4.342-17.844
	C36.167,6.792,35.625,6.042,34.5,6c-0.744-0.028-1.316,0.539-1.422,1.266c-1.431,8.925-1.828,16.03-8.078,16.03
	c-6.153,0-6.732-8.102-7.929-15.335c-0.155-2.002-1.198-1.891-1.613-1.877c-1.292,0.042-1.401,1.054-1.36,2.301
	c0.521,15.809,4.608,17.154,5.146,18.539c0.151,0.832,1.286,5.296,1.286,5.296L6.885,45.25c-1.253,0.876-1.183,2.019-0.836,2.798
	c0.414,0.93,1.904,1.24,3.002,0.451l16.988-12.972l8.709,1.633c0,0-0.615,7.47-0.736,8.683c-0.121,1.213,0.127,3.129,1.656,3.129
	c1.378,0,1.888-0.488,2.379-2.219c0,0,1.735-10.774,1.857-11.913C40.032,33.637,39.688,33.25,38.743,32.863z"/>
<path fill="none" stroke="#000000" stroke-width="2" stroke-linecap="round" stroke-linejoin="round" stroke-miterlimit="10" d="
	M46.568,16.573c-0.189,1.002-1.155,1.661-2.157,1.471l-3.628-0.685c-1.002-0.189-1.66-1.156-1.471-2.158l2.4-12.698
	c0.189-1.002,1.155-1.661,2.156-1.471l3.628,0.685c1.002,0.189,1.661,1.156,1.472,2.157L46.568,16.573z"/>
<path fill="none" stroke="#000000" stroke-width="2" stroke-linecap="round" stroke-linejoin="round" stroke-miterlimit="10" d="
	M3.432,16.573c0.189,1.002,1.155,1.661,2.157,1.471l3.628-0.685c1.002-0.189,1.66-1.156,1.471-2.158l-2.4-12.698
	C8.1,1.501,7.134,0.843,6.133,1.032L2.504,1.718C1.502,1.907,0.843,2.873,1.032,3.875L3.432,16.573z"/>
</svg>
