<?xml version="1.0" encoding="utf-8"?>
<!-- Generator: Adobe Illustrator 17.1.0, SVG Export Plug-In . SVG Version: 6.00 Build 0)  -->
<!DOCTYPE svg PUBLIC "-//W3C//DTD SVG 1.1//EN" "http://www.w3.org/Graphics/SVG/1.1/DTD/svg11.dtd">
<svg version="1.1" id="Layer_1" xmlns="http://www.w3.org/2000/svg" xmlns:xlink="http://www.w3.org/1999/xlink" x="0px" y="0px"
	 width="50px" height="50px" viewBox="0 0 50 50" style="enable-background:new 0 0 50 50;" xml:space="preserve">
<style type="text/css">
	.st0{fill:none;stroke:#000000;stroke-width:2;stroke-linecap:round;stroke-linejoin:round;stroke-miterlimit:10;}
	.st1{fill:none;stroke:#000000;stroke-width:1.8333;stroke-linecap:round;stroke-linejoin:round;stroke-miterlimit:10;}
</style>
<path class="st0" d="M23,18c0-2.2,1.8-4,4-4c2.2,0,4,1.8,4,4c0,2.2-1.8,4-4,4C24.8,22,23,20.2,23,18z M25.2,43.9
	c-0.1-12.5,10.7-13.8,11.2-33.5C33.9,8.7,32.4,22,28,22c-0.6,0-0.7,0-1.6,0c-6.1,0-6-12.2-8.1-11.7c-2.1,7.2,6.5,20.6,1,33.1
	c-0.3,0.8-1.8,3-1.8,3.7c0,1,3.3,1.8,7.4,1.8c4.1,0,7.4-0.8,7.4-1.8c0-0.7-1.5-2.9-1.8-3.7c-0.5-1.1-2.5-6.4-1.2-11.5 M14.2,13.9
	c0.3,4.3,6,21,5.9,27.6"/>
<path class="st1" d="M19.5,21.5c-2.7-1.6-4.7-4.3-5.3-7.5c-0.1-0.7-0.2-1.3-0.2-2c0-6.1,4.9-11,11-11c5.5,0,10,4,10.9,9.3"/>
</svg>
