<?xml version="1.0" encoding="utf-8"?>
<!-- Generator: Adobe Illustrator 17.0.0, SVG Export Plug-In . SVG Version: 6.00 Build 0)  -->
<!DOCTYPE svg PUBLIC "-//W3C//DTD SVG 1.1//EN" "http://www.w3.org/Graphics/SVG/1.1/DTD/svg11.dtd">
<svg version="1.1" id="Layer_1" xmlns="http://www.w3.org/2000/svg" xmlns:xlink="http://www.w3.org/1999/xlink" x="0px" y="0px"
	 width="50px" height="50px" viewBox="0 0 50 50" enable-background="new 0 0 50 50" xml:space="preserve">

<path fill="none" stroke="#000000" stroke-width="2" stroke-linecap="round" stroke-linejoin="round" stroke-miterlimit="10" d="
	M28.435,1.137c-0.282,0.127-0.704,0.758-0.19,1.841c0.248,0.523,3.384,6.444,3.384,7.419c0,0.887-2.528,5.9-3.231,6.392
	C27.968,17.09,26.573,17,25,17s-3.285,0.042-3.62-0.296c-0.88-0.88-2.263-3.887-2.97-4.98c-0.415-0.641-0.437-1.051-0.189-1.622
	c0.377-0.868,3.523-6.317,3.735-6.828c0.266-0.641-0.123-1.997-0.49-2.15c-0.453-0.189-1.17-0.075-2.15,1.245
	c-0.662,0.891-4.652,6.741-5.055,7.772c-0.34,0.868,0.302,1.849,0.755,2.716C16.683,16.055,20,20.309,20,20.309s0,7.554,0,8.342
	c0,2.124-0.018,7.114-0.018,9.142c0,1.055,0.981,7.131,1.393,8.832C21.872,48.681,22.814,49,23.457,49
	c0.918,0,1.393-0.899,1.355-2.812c-0.062-3.125-0.73-8.059-0.736-8.989C24.066,35.702,25,30.062,25,30.062s3.914,1.648,5.609,2.453
	c0.625,0.297,0.719,0.516,0.203,0.984c-0.688,0.625-3.438,3.25-4.25,4.125c-0.518,0.557-0.641,1.725-0.375,2.125
	c0.312,0.468,1.176,0.604,2.688-0.188c1.312-0.688,5.151-3.715,7.21-5.34c0.54-0.426,1.453-1.57,0.352-2.785
	c-2.704-2.987-6.5-5.039-6.5-5.039c0-3.292,0.092-4.43,0.092-5.809c0,0,2.635-4.087,4.15-7.357c0.717-1.547,1.019-2.414,0.566-3.32
	c-0.674-1.347-3.63-6.773-4.171-7.639C30.068,1.465,29.22,0.785,28.435,1.137z"/>
<circle fill="none" stroke="#000000" stroke-width="2" stroke-linecap="round" stroke-miterlimit="10" cx="25" cy="11" r="4"/>
</svg>
