<svg xmlns="http://www.w3.org/2000/svg" width="50" height="50" viewBox="0 0 50 50">
    <path style="text-indent:0;text-align:start;line-height:normal;text-transform:none;block-progression:tb;-inkscape-font-specification:Bitstream Vera Sans" d="M 36.9375 2.84375 C 36.9375 5.9380534 36.213836 7.3027491 35.28125 8.0625 C 34.348664 8.8222509 32.926296 9.0572192 31.3125 9.28125 C 29.698704 9.5052808 27.898666 9.7098228 26.40625 10.90625 C 25.169385 11.897809 24.313722 13.538013 24.0625 16 L 4 16 C 1.8026661 16 0 17.802666 0 20 L 0 40 C 0 42.197334 1.8026661 44 4 44 L 46 44 C 48.197334 44 50 42.197334 50 40 L 50 20 C 50 17.802666 48.197334 16 46 16 L 26.09375 16 C 26.309345 14.063852 26.911809 13.065547 27.65625 12.46875 C 28.586897 11.722677 29.976796 11.505719 31.59375 11.28125 C 33.210704 11.056781 35.040773 10.839249 36.53125 9.625 C 38.021727 8.4107509 38.9375 6.2684466 38.9375 2.84375 L 36.9375 2.84375 z M 4 18 L 46 18 C 47.116666 18 48 18.883334 48 20 L 48 40 C 48 41.116666 47.116666 42 46 42 L 4 42 C 2.8833339 42 2 41.116666 2 40 L 2 20 C 2 18.883334 2.8833339 18 4 18 z M 5 22 L 5 26 L 9 26 L 9 22 L 5 22 z M 11 22 L 11 26 L 15 26 L 15 22 L 11 22 z M 17 22 L 17 26 L 21 26 L 21 22 L 17 22 z M 23 22 L 23 26 L 27 26 L 27 22 L 23 22 z M 29 22 L 29 26 L 33 26 L 33 22 L 29 22 z M 35 22 L 35 26 L 39 26 L 39 22 L 35 22 z M 41 22 L 41 26 L 45 26 L 45 22 L 41 22 z M 5 28 L 5 32 L 12 32 L 12 28 L 5 28 z M 14 28 L 14 32 L 18 32 L 18 28 L 14 28 z M 20 28 L 20 32 L 24 32 L 24 28 L 20 28 z M 26 28 L 26 32 L 30 32 L 30 28 L 26 28 z M 32 28 L 32 32 L 36 32 L 36 28 L 32 28 z M 38 28 L 38 32 L 45 32 L 45 28 L 38 28 z M 5 34 L 5 38 L 9 38 L 9 34 L 5 34 z M 11 34 L 11 38 L 15 38 L 15 34 L 11 34 z M 17 34 L 17 38 L 33 38 L 33 34 L 17 34 z M 35 34 L 35 38 L 39 38 L 39 34 L 35 34 z M 41 34 L 41 38 L 45 38 L 45 34 L 41 34 z"/>
</svg>