<svg xmlns="http://www.w3.org/2000/svg" width="50" height="50" viewBox="0 0 50 50">
    <path style="text-indent:0;text-align:start;line-height:normal;text-transform:none;block-progression:tb;-inkscape-font-specification:Bitstream Vera Sans" d="M 2 2 C 0.9069372 2 0 2.9069372 0 4 L 0 40 C 0 41.093063 0.9069372 42 2 42 L 19 42 L 19 44 L 14.875 44 C 13.258912 44 12 45.384993 12 47 L 12 49 L 12 50 L 13 50 L 37 50 L 38 50 L 38 49 L 38 47 C 38 45.384993 36.741088 44 35.125 44 L 31 44 L 31 42 L 48 42 C 49.093063 42 50 41.093063 50 40 L 50 4 C 50 2.9069372 49.093063 2 48 2 L 2 2 z M 2 4 L 48 4 L 48 40 L 30.1875 40 A 1.0001 1.0001 0 0 0 29.78125 40 L 20.1875 40 A 1.0001 1.0001 0 0 0 19.78125 40 L 2 40 L 2 4 z M 6 6 C 4.9069372 6 4 6.9069372 4 8 L 4 32 C 4 33.093063 4.9069372 34 6 34 L 44 34 C 45.093063 34 46 33.093063 46 32 L 46 8 C 46 6.9069372 45.093063 6 44 6 L 6 6 z M 6 8 L 44 8 L 44 32 L 6 32 L 6 8 z M 21.875 9 A 1.0001 1.0001 0 0 0 21.0625 9.6875 L 17.28125 21 L 7 21 L 7 23 L 18 23 A 1.0001 1.0001 0 0 0 18.9375 22.3125 L 21.78125 13.78125 L 25.03125 29.21875 A 1.0001 1.0001 0 0 0 26.8125 29.59375 L 31.53125 23 L 43 23 L 43 21 L 31 21 A 1.0001 1.0001 0 0 0 30.1875 21.40625 L 26.5 26.5625 L 22.96875 9.78125 A 1.0001 1.0001 0 0 0 21.875 9 z M 43 35 C 41.896 35 41 35.895 41 37 C 41 38.105 41.896 39 43 39 C 44.104 39 45 38.105 45 37 C 45 35.895 44.104 35 43 35 z M 21 42 L 29 42 L 29 44 L 21 44 L 21 42 z M 14.875 46 L 19.8125 46 L 20.21875 46 L 35.125 46 C 35.590912 46 36 46.411007 36 47 L 36 48 L 14 48 L 14 47 C 14 46.411007 14.409088 46 14.875 46 z" color="#000" overflow="visible" enable-background="accumulate" font-family="Bitstream Vera Sans"/>
</svg>