<svg xmlns="http://www.w3.org/2000/svg" width="50" height="50" viewBox="0 0 50 50">
    <path style="text-indent:0;text-align:start;line-height:normal;text-transform:none;block-progression:tb;-inkscape-font-specification:Bitstream Vera Sans" d="M 3 3 C 1.3550302 3 0 4.3550302 0 6 L 0 9 L 0 10 L 0 46 L 0 47 L 1 47 L 49 47 L 50 47 L 50 46 L 50 10 L 50 9 L 50 6 C 50 4.3550302 48.64497 3 47 3 L 3 3 z M 3 5 L 47 5 C 47.56503 5 48 5.4349698 48 6 L 48 9 L 2 9 L 2 6 C 2 5.4349698 2.4349698 5 3 5 z M 2 11 L 48 11 L 48 45 L 2 45 L 2 11 z M 28.90625 14.96875 A 1.0001 1.0001 0 0 0 28.78125 15 A 1.0001 1.0001 0 0 0 28.0625 15.625 L 19.0625 37.625 A 1.0097184 1.0097184 0 0 0 20.9375 38.375 L 29.9375 16.375 A 1.0001 1.0001 0 0 0 28.90625 14.96875 z M 15.9375 20.96875 A 1.0001 1.0001 0 0 0 15.84375 21 A 1.0001 1.0001 0 0 0 15.5 21.125 L 8.5 25.125 A 1.0001 1.0001 0 0 0 8.5 26.875 L 15.5 30.875 A 1.0077822 1.0077822 0 0 0 16.5 29.125 L 11.03125 26 L 16.5 22.875 A 1.0001 1.0001 0 0 0 15.9375 20.96875 z M 33.8125 21 A 1.0001 1.0001 0 0 0 33.5 22.875 L 38.96875 26 L 33.5 29.125 A 1.0077822 1.0077822 0 0 0 34.5 30.875 L 41.5 26.875 A 1.0001 1.0001 0 0 0 41.5 25.125 L 34.5 21.125 A 1.0001 1.0001 0 0 0 33.8125 21 z" color="#000" overflow="visible" enable-background="accumulate" font-family="Bitstream Vera Sans"/>
</svg>